<mxfile host="65bd71144e">
    <diagram id="YgcJtonei7hbCmEuu0Kr" name="Page-1">
        <mxGraphModel dx="707" dy="508" grid="1" gridSize="10" guides="1" tooltips="1" connect="1" arrows="1" fold="1" page="1" pageScale="1" pageWidth="850" pageHeight="1100" math="0" shadow="0">
            <root>
                <mxCell id="0"/>
                <mxCell id="1" parent="0"/>
                <mxCell id="2" value="" style="shape=image;verticalLabelPosition=bottom;labelBackgroundColor=default;verticalAlign=top;aspect=fixed;imageAspect=0;image=data:image/png,iVBORw0KGgoAAAANSUhEUgAAAbkAAAE9CAYAAACWdRzmAAAgAElEQVR4AeydB3hURdfHlyqdhFRCQkdAkJZAgNCr9CICIkVUEOkJofcu0gUpgiI1pIcWSEJ6ICBSBMTX7mtBLK+9IJb/9/1nczY3mw2pJLtw93kOZ+7cmblzZ8n89sycmTE4OTkhK3F0dIQuehs8qP8Hsvq7kPgHtV309y7YPsHZwRGWxNbbWf5O8qoL6v0Nd6uAPMTBwSED7MyvJV1OtfaZOc2jpyvYPyy9PbNvT+3/U0thvQ2zb0O9jbJvI0uAY5zedgXTBhkg5+zsnMGqk0Y2h5r5NdNJJyB5stKSTnRW6fT4gvmC9XbMezvK/9GstN62eW9bve3S206HXHpb3Iv/Fxkgxz9mLej4wEqVKoFQc3FxQYUKFdSvCzs7OxXP9FIpbUfA9LxmusqVK8Pe3l6VwbSMZ1kiEqfNX1BhqZuu8/afqKC+h7yWk9/vLa/PzU2+u9fRGY6OuhRVGzg5uSAvIvV1qOIEXYquDeRvKyd/j5JWqyWfRcgRdBRmqFGjhtIGgwGUYsWKKcC5uroqUJkXynyEHLW7u7vKX61aNRPo+GDmdXNzU5r5pTIFrbV108O5B11Bfx+5LS+/31lun5eX9Hevow44AUZR6LwAjnmkrjrgig5wbHv528rJ36Wk1WrJZxFyhBAhRUusTJkyaNCgAYYMGaKkQ4cOqFOnDsqWLWuy7LSWmoeHBxo1aoRatWqhYsWKCozUjRs3VuWw3HLlyqF06dKqDKmUVEir5V5eNWFry5LX9y6ofNrvoijC+X2P/Nc5b5aAdK7SWeq6aGAv30NutXxfOuTuY8jRAiOMCLJHHnkEQ4cOxaBBg9CtWzeMGDFCwY4QYydEIBJiAhMCsE2bNsrKExASeo8//jg6duyoyiUU+QxaeOyIeM3nsTzpmPLbwTG/1MlWdUG0QX7KkO+iqHR+6s68+a93/iCX285VT28d7a1DrmjhJj8u5O8/J3/HklarJZ9FS45DiZxLK168OHr37o1hw4YpKHG4sm7duujVqxdq164NHx8ftGrVCqVKlULz5s1VmEAj5KpXr462bdtizJgxGDt2LEaPHo1OnTqp/J07d8bIkSPRv39/tGjRArT+pHJSMbnOj7ZVuEm98/PuBZFXvoui0vl9h/zX29jpOji5IDdCWElHqeuiseLY7i6OLhlEfkRk911WcXQGxd7BSZcibAP5+8/J37GktaRNkKMlJc4gtLA4nPjQQw+hb9++eOKJJ9SwIwHWo0cPeHt7myy87t27q3v9+vXDgAED4OXlBcYRaE899ZSCJC24UaNGoUuXLgp8LI/WIeHJfIQcgaqtg1h2liqd0ziBRW61lJ/bfAWdXupRVDon/7nuZZr8vnf+66ZDzpYh7eyQEXQ65GwL2uZ///x7Zpylv2vztNp0FiFHS45zcRxuJIQ41EgrjtbauHHjFPTat2+vLDQCjPdo3VFat26tYMahTYKNZXE4cuDAgSqeaQg5puvZs6caBuWQJ8swr7yliucmrqChU9jl5eZdCyqt+XdgDdd5fbf81v1uv/gdnV1hSZhHLDk7J2fkTxxh56RLbtugiqMjKAQ0vwux6EyQc3aAo4sjHJwdjOLkBAd2oC7OShimSDm6NrZnYbeDfA/m3wX7A/O/bUt9hKQxQY4RtJ4ohA6dTmhd0SIj5Gih0bLjECNBR7jREuMcHfPSaiMQOYTJIU7eZ75HH31U5eVwJfPyHp1YWC6BR8uQECxRooRpXo4wsVTpvMYVNpwK6nl5fd/c5pP/DKLl/0FRau3/R6lXbnV+628OOS3UnFyrwpIwjbOzq+pc7Z1dkD9xgr2zLrltA+kcBWqEnKuT8Xvhd0PAObk6ZYAcAefk6qLEHHZSnq6N8C+sdjD/HgSylvoBS32epMsSchy6pBckHUTodPLcc88pqBFsnp6eysrjfNz48ePVfWpabxzSpIVGLSB89tlnVTrGN23aVMGQc3VSFodGOQfIZ7KyWkhYqnxO4rRl2HI4J+9aEGnkP0R+wVCQ+aVOudVSB+aTcG60/HHZObuAUoFrRDVSsaorshKmq+Tigor0Ts63JSdl6NZcbqy5Kk5VQHFyslfi4lQZFGcXOyVZddLsRNW9NAuvilMlGKUCqjjpUnhtYGx3sbQFbqLZ32n7hKz6P0mTAXKMZAbpEAgHwodr5bgEgNYX5+No6dHZpF69esrJhA4mBB+dUpiW1hsdU5iOSw44tEm48Zrl0WOTQKR1yPk4Wo3yzKwqnJ94W4Wc9p35DtrrexWW/xjWoAviHfPyHtIJaiEnUBPYybW55n0CTodc0YFZIOfoaAeKs2MlBTkn58qgSGdp7+AAEYlTOg2S9o4VYZTysHfUpfDawNju8j3yO5HviVr6Qu3ftqW+Qu5ngBwTEkQUOp9wPo3WFYcTOT/HeTMKH8IlBBxilDhqzuMRWBTm4Q4pjJM0tNi43ICai8ppKRJ6rAyfzTzyAlJpqWhetJRxP2jzdinId2LZIvwOROS7LCrN/xv5kbzWu4qdHRyrOMDd0RXVXdxQ09kNtVzcUd2pKtwdXEzi5uACSlXHdHGhs0MVVzjbu+hSZG1QFc72VeFo72GUKjXh5FjLJFUc3EGxq+KUJvYZOlHxqrSzrwqjVIOdvS6F1wZp7V7FAXZK7GFXJV20faFwwVJ/KPcyQY7beAmUdG2EelG1A39EyFZqlr7EgooTwAkUBCz8v1CUwh9E+ZG81J3Pq1yhIiqWrwC7skapVKosyhhKoJTBgJJpUsJgQPE0Kar/H/pzs/v7LAmDgVI6TUql6WIwGCjZ5Zf7xWEw6FJ4bSDtnlGXq1BBWeECL/Z/2rB5fyj3MkCOnR2dS+hwkvP/ABkroufLe3vQutW2n3aOkpY150cLU/jMohSOJORH8lr3qu5VlXNC+UplUaZcKRhKGWAoboChRJqUNBjjGE/htVaYllIsj/8XmC9DXnbOuuS8DTjCVCLj98XvjlCTdhUtoMvU5nn87qQ8XWfoy7T9Wq7D/G5KGlDWrgzKO5SDm3v1DOtWCTNzwGkBmAFy/CXPCvj6+uLIkSMIDg7G0aNHVTg8PByhoaEqjvEhISHqmnEU3heJiIhQ+aKionDy5EkVZjnHjx83XUt5lvKb3+Oz8iKspy0J2ycoKEi15+7du9VSCzrr0AuVSzC4DrEwhd6wRSn01s2P5LXu/Qb2A2XQkAEYMmwwnpn4NCbPeAHTlk6B3wpf+K6cgqnLJ2HqkgmYtGg8Ji8Yp2TigucxaeEETFk4EVMXTcK0xZPhu2SKEr+l05BT8V08A0oWLYSvkuXwXaRLTttg6pLloExevkjJxDULMX3DcvhvWo4ZG5dh3oZFShasXwCjLMGC9VpZhgXrl2He2tVpsgbz1upSeG2wHHNfWoZ5a2Zj7ouz4L9iEibNfwbeHb3VDxcOJ9PzmZ7MSmdx7qlFS46WAyFHSN2rz7///nuvir6vyv3oo4/U8gw6+tB5h04/9FYVRx4689xr4XKQohQ6NOVH8lr3tu3agNK0VzuMmj0JT7wxA08dmotuRyahV+R0dD01EZ0jn0fb48+gVcRoeEWMUdIiYiw8jzyjxOvoc2h5bBxaHR+vpHXk88iptDrxDJREjkQrJcPRKlKXnLZB65NPgtIpciQ6nxyFx6PGYnTKZKy47ouFFyfixbNDsCb1CaxN7aVk49leyCCpPbExtSc2nO2SJp2w4awuhdUG6872AGVNygC8mNwPyxIHYUFMH/R+rpuyxMuWLZ+2BtJ44LclKy5LS47OJITcsWPHTMD4559/QNE/hdsCly5dUp6quTbt9WGSghsmKWNAh+F90GbFMHRYMxINtg1Aox2DUHdnbyU1X30MNXb2hMfOXkrcX+0DitvO3kqqbu8F122PweWVHjkWpq+6o3uadETVHR1RdaePLjlsA7dX24Hivqs96u3qjId3d0WbPT3QNXAQpsY9hWnxI7EophcWRj+GRTHtlCyLbgeRpad8sORkayyK9Maik55YGNkcCyOb6lKIbbAgsiXmnfDC7GPtlUyP6ITJwT7oMrIdDI4G2NvT09y417HAzBLoTJacJGIE95tkp8phRvOPboGZt8i9u2ZbnzlzBl6tvNT3Ye9A7y/bE3Foyasu6nfm38Kw4QPQZseTaL19OIqHdIAhqB0MId5GCW0JQ2hLFAsR8UaxkHQpGdIWlNJpUia4LXQpvDYoEeKJYkHNUSOiEVqldsGY843x1NmGmJJUVcm0JCcYxQXTklwwLbGamVTFtERdiqoNFsbVBmVxymOYGOGJdiObwlDDADu7Kgpysuwj2zk5S5CLiYm5dz24XnK2LaBDzrikwdogpwCXC8iVCG4DSqk0KR3UBroUXhsQcobDTU2QG3WukQ45G4D29GQ3UBbF18HihLqYGd0Bz4c0M0LOIx1yXM9K0OmQyxYpRZ+AUDMX3ZLjQt2itV7NLTlDoA8Mwe1gCG5llGwsObHwSoS0hC6F3wbFCLmg5nAPfwSeqZ0hkBPLxDfRCRRlxemWnNVYrb6JVUHxS6ihxDe6KSYeawCf0Q1hcDLAuXIlVK1Sxbg7jVPW83J3Ha60FkuOHf+D8DEHHK91yOmQ08GYPzDqkLPNoVZzyPnFNMeUyMbo+ExjGCoZ4GJXWUFOhistzcdpRygN2guZk9MhV7ho1SGXvuOKdv7ufrHkxKLj/J0uhdcGOuTuF8g9iimRDdBhbEMYKmYNObHczLUOucLlmcWn6ZDTIafDr+Dhp0Pu/oDcjNNNMD3qEbR7ugEM5Y2Qc7W3N+1BqjXUzAHHax1yFrFTuJE65HTI6ZC7l5BrDM+zXU1zcjn3rjT3ttSvM3ugFnyb+CZWA8U/voaSWTEN4XeyHjqMrA/DQwY42FeEo0P6RtuWwKaN0yFXuDyz+DQdcjrkdMjpkCsMgNjCM8wh5x9VH1OO1oTX49VhKG1QgHN2tDNtqq1bchaxYl2R9yvkinpOLb/Pt+hdySUEufSu1OfkCh5gOflRIMOV1cMbo+XZrhiT2gijzqSvk5uS5ARKunelbQ7vibfo/aZ9E2phWnxN+EfXwaQINzTt66629XJwqAhHx0qmzZldHJ1A0Vpv2rBuyVkB73TIFe1SgaxgmAlyBJwOOZtxntEhZ9vQJuQohNzko9WMkCvOo94qqnMBeQYpYaZDzgogll0VdMjpkMuJZaKnyZ1FaA65samNMCbFkiVntvMJ18ypdXO2DQnbtexknq8WpiXWwpyoGvA96opmvYw7clV2Kg8H10rqoG0dctnRxUru65CzEchxMbhuydmsJadDzlagnTPIEXCcj7NpS85KGHTPq6FDzoYgl4cdT3QLLHcWWEG1V84tOQdMS6KYWXQ2sAWW7VprWQN3epI7KDOS6ihZmtQQfsfcLFpyOuTuOZ4K5gE65HTIFVTHrpeTDlQdclmDxLrhaLTkZE6Ow5WEXNOeHmrDejvnCqbhSh1yBcOge16KDjkbglwehit18KSDpzDbQoecbUPOL7EmKHNjOCfnjCY9jHNydk52cHCtoubkdMjdczwVzAN0yOmQK8zO/0F5lg45HXKct7PqJQQFgxDrLyUryLVq1UqZ59r9HLXhrFzf9fjsoMnNn7OXTEsI8ngKwYMCFfP3lPWB2WnzfAV1rSAX2BSyTi5rxxN9Ts6ahi9Nc3LJNTAjuQYWxdeC7zFHNOlR0zhc6eQMBxfX+8O70vrxVDA11CGXHZQK+n72gCMEdcjlb5gxO7jJ/YKCmnk5OuRs05Izh9zCuJo65AoGNUVXig65goZYduUVFuSMp4Sbd74PyrVALDt9r9pDh5ztQU4dmCrelckemJHsgfmxHvA9VgVNetQ2WnKOrnBwcdMtuaJDVu6frEMuOygV9H0dcvcKLNpys4Ob3NfmKciwDjkdcvqcXO55dE9y6JAraIhlV54OuYKESVZlCcSy01nlz2+8Djkdcjrk7gmycl+oDrnsoFTQ93XI5RcgOcmfHdzkfk7KyksaHXI65GwOcoSBfLRhibNVbcuQq+JUBSK249WpQy4v0MhtHoFYdjq35eY0vQ45HXI2DTlbBZqletsq5ARuonXIGR1NioVk1DntlO+3dNnBTe7fq/fWIadDzmYgRwj8888/0MKA15T74aN9LwmfOXMG1rhOzq5KZRBmAjYHZweIMM42QJdHSy7XR+082N6VAi+BmbmW+/dK65DTIWf1kGOHL5+//voLFH4Itzt37igR+Ek6W9QCNq22FsgRagI2RxdHuHm4oap7VbhUdQavnVydlDB8P0Ju6LD+aL19uBJ1AkGutvXSIUeAmcNNru8V3KRcHXI65KwaclrA2SK4clNnLdwkbC2Qo2VGgNFaK1GqhFqnwkXSloSQq1C5gkorYLROyy7nltzQJwegzY4njZDL9VE7OuQEOEWhdcjpkLNqyGkh8e233+KTTz7Bd999h19//RU//PAD/vjjD9y6dQsfffSRycLT5rGlsIBNq60FcoRVJftKMBQ3qKHIRx59BPXq11XCcGuf1ujavSu8Wnkp8JUuW1pZdtYJN/HS1CFXFNAp7GfqkNMhZzOQe+utt7B69WrMmTMHw4YNw+jRozFkyBB4e3vj5ZdfxjfffGNLTMtUVy3cJGwtkCPgxIIj0NZvWo+DAQcQcSwC0aejcO7NVLz34XsIDAlUkKMlJ/N11gu6nENu2HAzSy5X58npllxhg037PB1yOuRsBnK//PILEhISFNzMh8kWLVqkQ85BLJSC11pLjvNxtNpiYmPw+5+/4x/8g99u/4bvf/peAY/fTZlyD2VwTLFO0OmQ08Lgfg3rkNMhZxOQo2Ujn4MHD5rmgipXrqzCy5Ytw9dffy1JlBZrKEOkFV9IfbXaWiw5Qkrm5OQHxpz5c/DlV1+oFv3rn7/w6++/4mT0SfV9lCpTSs3JWbc1lw/I6Y4nsBUo5hdy3EfRmnbnfxDq8sDuXSmgi4iIMEGOh+Wx0+UwpkCO6WRpgS0tL9DCTcLWAjlacuJEUtGuomrzZ8Y9g6+++cr0s+HO33/iVMwpda/kQyXVnBwhR2eV+8qS05cQ2AzgCOKsIDc12Q1KUpwxNcUZ05Md04Rhimua6JArbLBagty80+4PzgbNMTExcHFxUZ1ppUqVMkBOAMdlBra2rEDAptXWAjktpMpVKKfafNzzz+HjTz8yQe5v/G2y5Ag3Li/gXB6/K3t7+wyS8Tw8yxZVFUfHtPPeCn741fg+lp9rfsYcf0QNGa5ZQqCfJ2dTkCsR4gnDYeN5cq1Su+GZc43x9NlHjIAj6LKBXGF38PrzjMOrctSOX5I7KA8U5GJjY+Hm5qY62oceekjpVatWqTm5rCw3guNuH0v3BTYCS0tp7lZmbu/J87TamiH37Phn8dEnH5pek3NzkVGR6vugdyUtOM7Nubq6ws7OziQEniXIVbSjtWgPgZuDE9feuZjW4GlBWzDhnEMu0xKCXDmeGNeI2crw3v1WTx1ytjcnR9CbQ25uTLUHw5IjcAg5dpzKwaFMGaU5XMklBvwwDReJ//nnn2qJwe3bt9UuKabe2EJAwCK3mLewP1IHrbZ2yH3w8Qf4F8YfENQCubLljd+LzN9pNa1vQo6TwdSEGoFGwLlUdYWjizPKV6wIN3d3lC1vtBqZX+uxSUtRQKcNS1zOdM4hlz/vSmuBnCcMoUUh+Tt0Nb/Q1SGnQ84mHE8EOARWXFycCXJly5ZVkHvxxRfx888/q2QEFCF38+ZN/O9//1NxBAc/WVl66qbmH66/K+yPFm4StiXI0ZJ786031fehhZp5uESJEqDDkIeHhxrCJNgINPca1VGtugdKli6doQwuXaAjC8ElO6oQbFrJGdTMhz11yBUO9HTI6UOQuQftA2vJET6WICeOJzdu3MDWrVvx7LPPKhk/fjxmzJiBvXv3qoXkAi5LlhoByAXmBOP58+exZ88ecG1eTsEoZedVC9i02pYgR8eT5DPJClAtvVti/sL5xrV0ERE4cuQI6BXr7+8PcRZyd3dXsHNNG3o2hyHh17tvX8ycPRPdH+uuyuX2YZzr0wLO+i05a1knVxRWHJ+pQ06HnA65HHMhK8itXLkSp06dwtq1azFq1Cj4+PhksAbYgc6aNUtBjOvtBHKEIoc/CRPCkx0x19x17txZ5d+1a1eh7aSihZuEbQ1yp+NOo5lnM6zbuE4B7tiJo2pHGvmC+QOCC/fFAq9YsSLKVagAn/btMWLkSLwweRKmTJuGhYsXIzQ8HJ9+9hn+8/5/MGbsGPV9EHA65PIKDR1yuuNJ7mFTVIDWLbm0Obly5YxzNiNGjACBRFBx26+PP/5YXYt1UKxYMdVJ7tu3Dxzy5Of3339XcFuxYgV69+4NZ2fnTGA8cOCAGvqUTvpeagGbVlsj5MpXKq/aid6V4njCxeC05K5cvYIp06aoxeKEXc06NbFt2za1DZu0HbdgmzBhgiqDkON3NGHiRBw6fBjJZ87gi5tf4rc//sDtv+6oLF9/9zWen/i8SkdLjpYbnVq01px1D1fqllxRWnP6nJztgE0LVB1yaZCrUKGC6vx69OiBkydPSj+q9JUrV1C7dm11XxaNL168GD/++KMpHS06QpHLElq0aKHSChDZ+XKYU6w+U6Z7FNDCTcLWCDk6gLBttJDjYnAuIeD2Xk+Nfkrdlx8YgwYNwmeffaZajT8wuLwjODjY9L3QZb9m7dqo83A9jJ8wAVevX8edv/9SwkxccK6FHAGnQy4v1pxuyemWnO0AT4ecGeT8/Pzw5ZdfZsDPhQsX0L27cS5HLAbO1YkXpjYxrTrOwbFjLpPmsckw48whRwDdi4+ATautEXKyGHz8hPGZ1sklpSShWAkD6F0p6caMGWPaco2Q4xwn500FgoSchEuXLYPDQUHKkvv99m38/e+/+OLm5+CzmIaWXFFALtMSgkLc8USOpMm/9lQLo7k4unClaL1LdUvOdsCmW3KAWhJgyfFkzZo1GSw0Qig1NRW08Ng5cm0WNSH3+eefK0YRJuxwCTGeakCrTTpb0YQcO2Yt2LThgoSdFm4StkbIqdMIDAYFHlkMzqFKWnOxCbGqDQk4WTTOoWT5ASJtp92ajUsH6FVpKF4MhmIGrNu4QUHul99+BUF389bNIrfkMiwGL+QdT/IPNyNkChdsWpDqkNN23no4Z9DVLTmzdXLr1q1T23ppPSEJuS5dumSC3DvvvGNiE5ca0BGFlhzn9LhoWQBHrUPO3O3e3njkjtlw5R93/lCQi0uMU+1Hi0uGNUeOHKnmSE2NDpiGK9nGleztUCFt5xper9+0Uc3H/cVT3wEdciECqfxqLXgKM6xDTgdbzsCmbScdchYgZ37UjhZyXHTMDpSW3Pvvv2/qbzk/REuNXpsEmg65zFAzd+rgHpZsS+2cHBuUi8EFchxSFIuPlhwdgbSfw4cPm35M0JLTDlkScn/c+VOBjsOV3B+zqOfkMlhyhXxoqm7J5WX+MT2PPlyZe8BoYVNUYR1yZpDj0gHzubasIPfBBx+o/pZWH4fPCDpCjsOV5h6WuiWXGXpZQY6NKpAjGAVyPPvPHHLaoWECjrueEJwUDlcScnQ+4eynNUAufzue5M+7UodcOrDy4qWpQ06HnE3teGK+Tk6cRCxB7ty5c+jWrZvqOLWWnDnkCDqx5GTjZ+lwCTnek7kkduTasNY6yW+Y5ZqLNc7JCeS4dyW39ZKP1pIj5CSdJci9/vrrJqjJtl7S5jrkMnbqOuQytkduQadDToeczUEuPj7edAqBLCrmtl7mlpwWcrLLxnPPPQeu0+KHFpwAiyBjxyt7YkqHq1tymS05sdBkuFL2rmSbai05gdzQoUNNbS5AZLtKG/M/oPpPmGbJbdy4UTkDcb6Un1vf3sILk19Q6YvKuzKTJad7V+bCQ/PBnpNTx8boZ9Ll+kw+OX3AP9EdlLkPygbNhBFPBxeLSxaDazdolo6UW3PJEgLpRLnN1yeffKKSsBMl6Phhubt3784EOVknJzBkWm1YZS6gf8ytOF5boyUnDiWcJ6N3pdE9xNgI3PGE8NJacpYgt3//fhPkOEQs3w/zbtq0KQPkuBh84pSJ1gM53bsyF4Cjg4sOOf3g1dxbk+aQeyCO2mGnTxglJiaa5s4EcjxqRw5NFeZYghz3TpSFyVw6IGvg6F3J7abEuhBNyBGGAjYtiOQ5BaW1ZUvY2iBHS4rH6LB9ps+YriDHpQPyOXL8iLqnhdwTTzwBDhFrPV8DAwNNbc0TCCjS5hs3b1JLB2THkx9+/gGTp05S97lBc1Gsk8vkeJKro3byOyeXP0/IzMN7uVsUnv+lB/nzCs1c/1wMX4a1QlEPV+bbkktywTRbkMTcgywrpxa2mVhws5M8QHlgIEcYJSUlmSAni7yXLVumTh2Qzpb67Nmzpjk5sRS4f6WskyMwKfxwnRyHybS7nbDTFchpO2jtMwoyLGDTamuAnGyfxeFHQoanfrNt/Gf549PPP1XbeUk7hB8NV/eYR4Y1hwwZoiBHq1naUXY8YTn0ruS5cQI5zslxfRwhR8cTbhk2dfpUE+QIUKmTaMblXnJ+CkGmxeA65HJhzVkP5Fqe7YqxqY0wJqUhpiRVTRMnTElywrQkhzRhmJIGl3x23jrkcg8/S5CbH+tx/58nx86fHSU7foGWuPxzMTg3/5VOlJ0u18OJ44mk5+bLX3zxhfTJpn0pCTkOeUpHK5qQk106TJnuUUALNwkXFeQID4EG4cYhSlpxrm6u6tgbtg/3qORCbe1wZUBQgGpDpmMZTDdw8AC89+F7atsvmb8LCTNu68X73AuzqntVU9u/+tpu/Pr775B1chyulDk5WnGsjznopK650zmHXKY5OR1yOuRyCL/7D3JmPwIK6MeA1qrTQm5Oogco9y3k2Nmbf7hpskBI9Pz589WCbm3alJQUPPLIIypt6bQzyrgRs0COQ5W0DAlGrrFbuHBhpnK3bNmSYbiS5VEiU/AAACAASURBVFuqk/a5eQ0L2LS6KCFHoNBy4+4ltN4IOgEX2335yuVqAbhqE/wLLgiPT4pXp4EzD4HDdAQUnUe0MDwZfRI8J473uTOKbPpMffb8ObWdF8vlYnAuIVi1ZpXpu2GddMjlfAgz83DfgztcqVtyBTH0qUMur318tvm4Mwnn4/r374/ixYubOj12lHRE4TwPN1vmh+fATZ48OUMapmM+OpjQw5LW23//+19cunQJGzZsyFQm0/PInePHj6vhNpm/y7aieUyghZuEiwpyhAgtJg450spq0KiB0YIrZkCdh+tg2JNDEXEsAj/9+hNu/3UbtLb+98P/8Pa1t9VcnVhmj/XuqY7c+fX3X1XaH3/5UQ1vXn3nKla+uBJNWzRV4OT5c0OHP4FtO15Re1Vyno9lE5yUxOQEBcvGTRrBUNyg6iJDlVqrU7fkMsNPh5wnDIebonp4Y+iQ0yGnhgGrV6+u4MCd+a3lw07/ww8/VLuS0OIaN26cOgyVR7Y888wzeOGFFzB37lx12ClBxyN1Jk2ahGnTpqldTrh0gNfcLHjOnDkICQlRXpZ0TuFZdPS65NwRy+N5dEzH3VF4agGHOI8dO6aWKMg+lqxPQX8EbFpdlJATa6la9WrqjDjZi7LvgL7YuXsn9h3cBzqahIaH4nDwYQSGBILDlVu2bQHhxo2aFy5ZiL0H9iLsSJhKFxQapNKdOHkCDHOtHS26IcOGYP+h/Th0+JCK53Amy+Qc3/HI40ozPYdI+eODokMuM9AsOYnokNMhZ5pflKHFfGndkivovt9UHocWb926ZboW70jO08n+kz///LM6GJX3GCcfpqGXJOO13pK8z3Scz6MTCk8Gl7KYVrb8kuUG4jzxIECOlhxFNlvmUGKZcg8p78b6DeurObpSZUqpTZVpXXFzZQqtPg4pMu+jTR81OqAUMyjoqXT/v6sJhz5pEVIIU5bHtPXq1zVBTGBGWEpZDRs3VGHWhXEcUtUtuexgZ+74kV36gr5v/vzcXWeGdN69K23SkjOf+1NOMQIa6mysM/P8WV1nV47pvjzb7LlZlZuH+AdqTk4gdS90bkClta44h5ebvDmtu/YZEi5KS44QIYA4ZCnzcXQoEfhkp2WpQXbpCESBX3ZpeZ9QoxOMbsnlFEbmUMlpvoJKZ/783F3rkDPzTtQhp/ogO0dXOLi4KU97Oha6OBqFYUti4I4gcsNahyu1YCFotFaVWFrUtL7EWhNYSF65JngkLOVkByNJn126vN6X8rW6KCFnPr9F2HHIknBxqeoMNw83cCjTvYa7El5zLo6aMCQkmYdAqlGrhkmq1/Qw5WE6Qo4WGfNKWSxXymM8ryUf07MOzGNex9xdPxjelbIYO10XFLxyWk7uoJZez4z58gS7DOvkHkHLs51tbwmBuSWUCXI5tayqYVqiVtLgabLQzCyzLONz+jwzOJu/x12udUsuG4qIpaWFxd2ymKfjtaWPpLN0ryDipHytLkrIEVIiHLKkNUctIpYewULoCNR4n3BjPAFHYZj3LZXDe4znECTzmYv5c/I3RKldT6dDztIcXsHHZYRVVhDLLl6HnEBJIGOuzSCVCSJawDEs5ZnlyxJukk6eK9dpWsorAP1AQy4rABUEZIq6DC3cJFyUkCN8LAmBxnixpggdc/AQTIwTyJnfZ36m0YqUKeXSYtOKPMdSWZbqmX2cDrmCB5ol606HHDttE1TyC4GcWnICq+yeJ+lyrHXIFTUrbPb5AjattnbICZCoKVqwSJxWa++bA07uSXqBmVxb0pInb1qHnA457npi5TuemENKh9z9OSdns+TKRcW1cJOwNUGOkBGYWAJOdnGS11xLPsZLOKfavKzcXeuQ0yFnA5Azh5o59OQ6S0tMLK+stNmwY5blSDopR6714cpcdPMPdlIBm1ZbA+RyCpy7pcsKPnfLk5N7WZWbs3gdcjrkdMhluwQhE/R0yD3YpMrH22vhJmFrgJwAIyfQySqNlGFJZ5UnJ/GWyst5nK1AzjinVSKkJShZO2hYmg/zRIngNkYx5feEIbhFDvaeNJ6ekBmEbVAshGK8XyLYGyVDW1soU/KL9kGxEErGd2B+inm8+bWtOp74JbmB4ptYNYP4JVTFXSXRBX5KnOCXSHFQMiu+Gihz0sQ/oSooAiv/BBdQjHmpjfn9Ex2QQRKc4E9Jck5LY8wj+UVLuaKlPCnfN7EaKAU255hYFVrHEzmF4L7duzIfzLC5rAI2rbYGyOUENtmlyQo82eXL7n5W5eYs/sGEXPEwLwtAsgRIgZP5vXTIGYJbKUApyAU1zwDOEmHpIDQC0TLkmJdiDjXz6/sFcgK8rADnG+9qhF82kPOPcVGg0yFnPI/S5tfJFSSxCBFr/GjhJmFrgJwAIzvg3O2+lGFJ3y1fdvcslZfzuJxDjkfteO94Eq22D4chyAcGnkIQ0soooWY7cIR4w6AV8/s5vDbv5MXiMYS1NpYf1BKGoJZwi+kN7/88j7YXnkGdY31gH9wFlQM7wRDaRYnTwfZw2O8Dh9c7wvVAdxQP6QBDQGsYAlrBENkdzcP7oc3JJ9AtdjTaHB0Cj9fawWV7K7gc7Aj7PW1Q6fXWqH20L3pdnabEJ/JJNNzfA/aHOqLSfh+UDu6Ah0I7ovj+Nigf3BnNEkYqqRjRA6UOd4AhvB0MYT546HAnlDzQDmX2dkT5A11RKaArKh7qgpIhbZUUD20Fivl75wlu0sZFuE4u3XJzgW8asHzjnTEnqTHmJjfBmou9seXGEGx4exAWJ3XBvPimmBvXBLNPP4zpJ2pgckR9zDjZBC+eHo2XUydgZcxALDjaA/NONcSC6MaYe8oZM084YE5kBSyOdcCS5M5Y/eZjWJE4APNO9cD82BaYdepRLIjzxNLk1liV0hNb3h6CXe+OwcuXhmJ5fFesTOyO+adbYXaUJ1ad64Z1l3pj0+XBWH+hPxbGtcPsU96YG9cM8+KbY2nyECxLeQLLEp/AypQnsfhsW8xL8IJ/Ym0lYrGa67xYeLTkpie5K5mZ7AGKbslZI7VyWScBm1ZbA+SyA01O7mcFnpzkvVuarMrNWbxtQ654eBs8fG0URmMjnsVWTMV2+GIn2lydiJKvt4IhgCDujAq7veB1ZiQm/LIVI75chVLhnWDY2wKGsPaolPI4/H7cgCX/7saiP3Zg8e2dmPnbKxj10QLUPzEAJV9ujEeih2DsT2uxAPsxF3sw77cdGH5tFlxDe6D8G20U4Ag5wxut0PzqBCzAYTz36ybYHXsMhr3eMES0hyHAC1WjBqHPt8vx5M+b8ejZ5xTgyh/sjFJhPkoeFMjNS2mKPV8Pwam/5uIc1iAByxHxywxsvtFTgY6QmxNbH5uu90HwD+OR8Os2nLmzG1E/LMf+/0zBsoQWmHX8Ycw+6YQl8R7Y8FZtHP2pB07emYMELEXU7yux9+PJWBjvhakR9bD8TFsEfjsWMXcWIgUrcQEblUT9Ngev3hihIPfi+a4I+2ESYv6eo9IkYjkO3nwOK892h39UI+z+9HGE/rAUMf9swMnf1yLmzgYEfP8M1lzupkMul/38A51cCzcJWwPkBBh3g01296QMSzq7vHe7b6m8nMflHHJDnhyAljufhNeO4TAE+8AQorHkwlrCQBHrIdQbhgyivZfzsFg0YsGVCvYGRVlyh1vAPa4PRv67FiuwF/2vTcLApElY+/dBzP9jH5oGD4NhR1uUOdgTngcGw/ezTUjCOziKM2gZOxF227uhZEB/1Emdgl13jmHjDwGY+u5a+H2wEQf/jEAkEjHp2nK0eLU3xr+3CttxEn4frMfg01Ow7pvdOIxT6HxmAipvaYWHArqg+P728A4bgyW3AxGDa9hxOwKOh3qg+FZPZd0ZdrdAv9MTsAPHcBJvY9Wnb6DWgSGotKkzyoa0V1IylKd4Z5yvYxukt2sewlZgycnc1Yx4Z/jFOWHT9X6Iw3zE/LEFb3wwG298OAOxf25C5C8Lse7841ga2wW73h2FuDurkIoNiPlhC6L+txlJv+/GNYTh9M8rsPJ0f8yL8MSuK48j7udFuISNOP39yzj1zUak3D6ES4jAkVtrsTZxHNYkPoVU7MRlHMCJr9Yg6H1/hH0yF8dvzsS2c0OxJLoTwm9Nw5vYhohvF2DvjTmI+XEzLiMAe2/Mw9xjbXDyx9k4+8/riPzfBhz8aC6C/rsIr37cA0tTGmNmQl0ltFzNrThe59eSm5HsAYpuyd0HeBSwabU1QS7n8LC8iDw/+bMCXX7KtHewTcjRgjMENEfNxP4Y8NMiDLg+GVW2N8XDOzpj1lebsAph6BA9HoZd7VBqfzf0jnkBGxGGw3/H4I1fj+GZb7aj2v6BMOzshLrnpmLrLyFY8OFWNN3ZD24rWsP/3GIcRSx831ujIDckdSYmf7IO3nsfR401bTHz2kqE4DT6XPaD3VZvGHa1hNOJgZj1v9ex/E4w3sApbP8jHC6BjynIlQ3qhNIB7eH36Tps/CcQr/wQjl2/nUCzY8+h7Lp2KB3kgzLB7XC/Qs4/yRWU6TFVFORe/+wpxGMBDv53IaYF98Cc430QfGsx4v5aifUXhmDD+QE4fXsRzmA9dlx7GktPPIkVUSOx7c3pSPj1VVzCNmw6OxwrotrhyM2JCnABHzyPFZEjsCBsMF4+64+jX25F4u1d2PfeAqxNGoXEP7cg+n8bsT5+LFafGqRk6bHOmBPYGktjOiPsq6kI+3oelkT3wfO722PHxak4/89evH51loJc1C9zkfznq1iX/Bx8D3fHzJDHMCOyOvxP1lCA84+vk8GpRgs8HXL3AZwK6hW0cJOwDrm7r517ECBnsujSvCOVJRfM+au2SlwCO6HFmZGY/sl6vHQ7AC989jKaHB4Ow2udUDawLybcWI0tOIqFb23Exo/fwIbfj6DT4Wdh2NoLDeP8sOt2FNbeCkSvI9PROXACll59BTu/CUGfuGlw39gZtfcPQP2AIfA58TyGvb0cL/0YiOVf74PnkdGw2+gDj/29MeT9pXjljyOYdHE1Vl5/Ba9+HYS6x0ai4u7uKLerC2odfRL7/z2Jl27uwcTUtXj9ThxGnVuB+pv7o/S+NihzgEOW3veVJSeduziYzI5zBWXjpX6I+GEKTn6/Hgc+mIeQT1cg5c/dOPHNWrwU/zTeeMcfl7APkd8swKKj3dQc3NL4Zph3qj42XeqAne/2w9I4LzWvloqXEPPjRqyOeQpzjzfH7CNNsSC6AZYlNMG2az2x9nx7bEodjNhfFyP5t504+sUaRH69DCe/WY7X3pmCpVGDMC++HebE+WBVSj9svDgMgR8sxomv1iLs82VYmzAGC461xakfZuHC3wE4/N4KbDo3HhvPjsOipIcxL7YW/GJrGCXNg1TeW82r5XGnF+2cnG7JFRRhrKAcAZtW65AzWoUPsiWXCXIh3lDW3MEWMOyoh2ph3TH+z00IxFlsxRH0TvFHjZ29YNjuA5eTI7D+7xAs/2kfum0ZinHHZ2E7ojH2zZUotbM/ah5/AXv/jUcI3sSanyKw5e8YhPybgPkXN6LBrn5wWeODSht9UHNvP/h+8xr24AJ2IRqjzyyC05ZOqLqjO3q8NQPzEICRcXPQYmt/rH1/F3beCkTtiBEovrktKr3RA93eWYAAnMYzsbPQfucobPnhGFZ8HwzvfaNh2NkM5QM63LeQ809yw8zkaliQXB1zE9ywNKEjQr6diMs4iEs4gCs4jKsIQsCHC7H0xDAFuTN3XsXed57HvLDOag5ueaInFp1ujAXRj8D/SAMlmy4MQQpeRPAnizE/YgCWnm6DVQkdsCSuEeZH1ceMiLrwC6+DDSkDEfXDfLz17z5EfbtJQS71zlak/LUVb7w7HbNj22JCWCPMPdkZ+z59AR/iGP6DMAR8OB8rooZjXUofHPvGVw12n7tzEHG/0Urcji3v+mBmlLsJcuJoo0POCmBirVXQwk3CBQE5BwcH5EfyZy0V/NBlwdXHuocrZS7KfJ2aIawVDEGeqBDRGVUie8I9qCeanB6Oqe+sxvpfAzDri53wPjgCZbd0QKc3/bEbR7Hi5qtov+9JjEqcgygkY+N7O+G0eSA8I6ZiP+H440lMTlmCaedW4JXPDmL/j8cwMGURamzpj6b7+8IrYCAGnJ6J8dfWY9OtIGy8GYhOIWPRIXAMtv4ahJ1/hmNQ2AvodWgsdv/3EA58HYYecbPhtKEnar4yALO/PajmA8dGzETPvc9iw60g7PkrFqOjF6D4Dm9UOtgNpY+0hSHYK8MyBL67tEOedBHOyUlnr7XkZp12wdZrgxD95xwk/P4SDn4wDYffm4mY717Ekc/XYXPSJOy5Nh9n/tyHsE8XYenxwZgTXVXNRy2Md8WihKqYf7oeFic0wPpLAxD77yIc+Xo5lkcPwezIOlgU+wgWxjlgXnRlLD5dA0tia2J9cmfsffcJBNyYjDUn+2Ht6SHYd3UiUv7cgWO3VsM3phNmJ/bAwrgOWJbcFQdvTEbiz6uR9PN2bEoYh1WRgxH19Upcx3FEfrkdBz9eiEOfLMLKi17wjaoJv4RaSqYlesAoeT99QNpMt+SslVL5rJeATat1yN1LSNom5IqHe8MQ0BQeCYPQ/et5aH32WZTd7omaq9tg8vVVeBWx6Bs9TUHuqS834hBisPmXACz98jW89MOh/3cZScSB78PwaNALaB89F7v+iMXsazvRZHVXVPNvhtHBUxHxdwL8b+3Ho3tHYsg5Xzx9fQHqbu6NMjObYPq5tQjBWYw6vwhDk2bjIGKwD6ew7usD2PBdAOJxHudwFTO/D0CL4OfQ8dgUrEcMjiMVmz7Zj+Ufv4GDSEI4LmLh+7tQZk8HGLa3QokwWRCecV1enuAmTkBWBDm/KAfMT3LH4ZvjEPfPfLx+fQIm7W2JqXt8cOD6dJz5Yw/eeHsedrzlj+Q/9iD5ty1YnzAKM044YdZJF8yJdsCuj1oh/Mfh2HilDZandMPx32aq+baXzz+HqSFumBZaDUsSnPDytQY49uPj2PtxZ6yObYddbw/A/qsTsDCkCya/1hKLI3oi9ufNSPz9FSy7MBCrrjyhoDnrpDdmHW6PXW+NxXUcxsF35mHpkX6I/f4lnPv9MF5OnIGZ4f2UEHAzY+vCN66mEh1y+QTAg5BdCzcJ65B7cCEnw5SGUFoz6SKQa5DwOCZiG5b+vQe9Up5Hx+DRWPLdHhxGCgYdmwyvgKFY+28owv46gpXX1mDuu+uUvPb5XsQgHjPOrMaosOnY8Ws0Nnx7BD4Bo/DozgGYfGUd9iIRs798HV3CX8Dz723GRkRhxFvL0Wzfk5j98Ta8jjg8fmE2fI6Owfh3l8Pv842Y/vFm+H/2ihqWDEECxt9Yj27HJmLa9fV4DdF48asDmHrpJTxz9UX4/ncHtiIWa34/ikbRo1Du1XYoFtgybVF4wUKuWGhzGAIfRfXwwj1PTobvxLtydlJVLDhXAwduPoXT/87AwY9fwNLo7libNAgxPy3FebyCnZfHYV3KCIR/tRDJd15GxK0leOXisyru9RvTlZfk2X+3Yf2ZUZh3oiMOfjoJqTiEiK834ZW3fLEpdTIOXPfH2d+34SoCceDt+VhxvDMib87AxX+3KCvtpdMjcfj9eXiTA88/r8Oat4fg9Zsv4NRvS7Ht+tNYEzUaQe8twrsIQ9B7S/DS6eGI/3k9kv5coeb3uPZuTnQz+MZXN0pCLUyLr4lpiTXSJIsjfWSPzRxo3ZK7T4knYNNqHXI65LSAU2EOV4Z4wTmsCzq+OwmrcRBrEYgXfw3ATpzC8i/3oNWOwegR9QJe+icEq66/hMe29UXzjd3QelsfjAt+AQHfh2DLF4cw5/xavPz9cez9Jxnr/gjFi78GYg/isf2vkxgYOxtNdj2BgUnzsPy3UGxGFDbiJF5FFJZ89YYCXI1tXdH4tV5osX8AGm7vjfbBo/Hip7ux5bvD8Al+Bs3eGIrV3x7Axl9CMejIFDTZ0BsNtvdH3a19MPbSS9j8bzTavTUVFXZ1gOGw530JOfGuJOTmnnHHxrd74PA3TyP6l0VKkm6/iAvYjOgfVmFz6igsOdUfm86NVoAj6BL/3IjkvzbhbexTkNv3vh8WRfbH/MjOWJs6CIGfrcE5BOAtHMZFBOLC37vx5p1dCLi+CKuPj8aqyK5448ooNQR5FTvxNvbjBgIV5LZffgFTTrTGzv8+h8vYiQvYikv/7MOHiEDSzzuxIfY5LDk2AJFfr0A8IXhxuFpkzjV4s5JrmyDnS9DpkLtPyVSAr6WFm4R1yD24kJNhukxzchyKC2uFMgFt4HSsO3pemozRXy7HmI9XYtiNBWh/YhSqb+uAR2OGofd//OGZ+BQc97WH4XUvtTjbIbwH2r83HX2uz0Kr+LEYfGk2nv5wJaZ//gpe+HADxn64BU+8vRrOYY+jxO5OKB/2GBpcGIenPlqEsZ+vwPD/zEPX5HGoHNgBxXY1g2G/JwwB3jC81hzlAtujw1vj8diN6XAKewyVAjqj6zu+aH95EuwCu6LsvnYwHGgPw+6WaHj6GfT6aDnqnh6Ckrs8YTjUDKW5i4zZvprSDnnSYa0glpx7+CPwTC28k8FNllySK/zSlhEQePMSG2PNlXZ4/ZNR2PPpaOz9dCRe/2gENr3dRy3M9j3RALOiH8WKsx2x9cZA7P10BvZ95o+Dn0/BtuujsSTBC7MiG2JOlAfmxtTA0kRvvPreAAR+uQDh3y5D0FcLsPOdiVgU64nZkXRWaYz5UY2w8a1uCPxqDCK+m4WAz6dg53vPYMHp7ph8ohFmx7fE5hv9sPfLkQj8ajIOfv4C1p3tjXnHW2NhdEu8fLk3dn0wECtT2mJqVC34x9WHf0pN+CZ4mEQfrixAGNyvRQnYtFqHnA45i5ALbYnyQe3w0EFvOO5qg5qHuuHhg33hvqszXDe1Ru1XuyiHFMd9HdX2XO7B3dWi7AohXZQnI132HXZ3gN2Otqj6Sge47+yC+q/2Qa2tPeC6pRfcd/THQ3u6ocwb3VFsf3sY9rVDrf3d4LGnM6q/3hH1A3qh0uH2KH/QByVD2qF0WAdUDu2CMod81FZgDnt9YB/cTUGu0t52KLe7tQKc2/H+KBPaA8UOdYRryGC4BA9CxQPtUX5fW5QM8kKp4JYKcgSdwC5PcNPMyRU15Lill2zrxaHL2fGPYOGZZlgQ64OZkV6Yc9ITc0+1VFtrzTrVXAGOu4wwzO22Zp3oCd8jXTHjiA9mH++AuVGPYl50EwU4Bbqopphz6lHMjeyHxTGDsTTuccyN7KMgt/B0CyyMeVR5aC467YV5J5uqYU4Odc480QFzoroowPnFNMe0Y48omR7mCd9wL8w95o3FUe0V5Oaf8sS86GbqOYTcjNiH4ZdU3QQ4wk6H3P1KpgJ8Ly3cJKxDTodcOuSMu4GoTp9DlqFtYQjyRrF9Xih5sBVKB/ig5MHWKHWIe0h2ROkj7dTelmWOtUO5Ex3SvRSVxyK9GI0bLRc/3AaGQ61geL0FDLubofQ+Hzy0vx2KH+YOK21QPMjLKGnpSod1Qrmj3WAIbm2sA/fSpER4wxDsieJB3FKshXFfT0LrQBPlDWo4xA2c03aDCfJUe14WP+yjdnF5KLQNSoZ6KUl/X+PcnK1CTjwFxaITLXs9+sc1xIzYBvA/XUfJrLg6mB1fF/6JNTEzqRZmJT8M/4S68ItzgG+sPaaftlMyI6YaZsZVx8yE2pidWAezUrjY3Bl+SWUx62wFzE6thJkp5TEzyVHJ7KRamJNsTDuDTiIx9eB3ur4SFY6vg5lJ9TAjqY4ShkX84uuAebgWbnpsDaODCeff1BycgE3m4IxelVOSeHxRukg75Ebrc3IFCBZrKkrAptXWCjnzdWsF59Z/L6FmXrateVdagFxoW5QNbqeEYKNUCO2kpFR4W1Doml8qgkBqqeby1BZkx9qidEQHJWXDO6FMWAeUDzKKfUgPUMqEtVPCRdqlw1urNExX9khXlAnn5s9tjRLMIUYKj/DxRKkwHu1D4PF5aZtYh7dWwOWG0io+uKWCXKmg9igd0lqB7kGBHF3uCbqZ8Y8omZNQHxQCjqCjQ4dATsEm0Rkz4h3VsTjUCnBx1eEfX8sEuZnJLgpshJwIIcejdWbEVU+TmioP4UqR5xNkCqaJteHHzZYT6ppE3YuvpYAqcGYa4xycDjlr4odN1EULNwnrkDMHU0FeWznk0k4yEC9L0aZ9MdNOIzBZZGk7oHBXf9n0mOGywelSJqiN6bpMcFtQSocYpVSQDyilOfyoxBgv5RUP9wHFEMZTBShtjSIgC/JWlqWy8LRhApDvogDHNX7G0xNUnNwLznz6QPr75mHPSisYrhTLRSw4k06bx/JLqIGM4gE/7RxXvLsaDuR8nhryTHKAb5ID/JLKwzexnLLc/JOp0+b8uIekxgrj/B+HR01H9yRUVWFeZ5C04VQ5L070lCQXUORa3meaOjtOrLfM58hprTiG0/PlPKxbcjaBrNxXUsCm1dYKObsqlaEV3ZLTdsQFs0GzHNcjnb1oE+QIjrDWamsvgoWw41ZfPCRVjq9hWAs5hgV0pYPaoFRga5Q0SVuUDGyrQEfNeA5XyqGrtNwsQi6M9eA7t4EhhIen0mrTAI/1NFl7Gshp4x5AyHFYUisEnH9idTXXxfmudMkMOYKOw5PmkNNaYYQcj/bRAk0WpmcAnwZy05NdIaJDLvd9eIHm0IKgQAsuwsK07yThgoBcfgFEmEkZDDs4O8ClqrMSVzdXOLo4KuBJGmoOZ2qvJSzx2uFOuVf4OjeWXD+03DkMXjuGwhDMzpxDdV5GCfOEgWJay6YFXt7D6VBLKyPNslPzX4RbeBujqFO5aQkZ59gESqK58TFFhh25078xrrWaPyseRN0ahkDCKA1Sgd4oHkRg+pj2yDTQiqNEULc1SlgbGCi8pmUnkJNyMmgZ1rSs5X1zq7OdRNN/8gAAIABJREFUs6MTS2BTuIc3hufZrhib+ijGpDTClKRqaSIWixOmJVHSrJccrOfKiZUiJ2ebdIKHBmDpMJueVB3m4ptcA74pHupcNdnh32ShpcFJLETeN4YzOroI2KhlizFqbTzDzMsylBXF89zSZFpKNUyVcA7aRLfkcgkR6exFS/Z//vkHf/31Fxh/v3zkHbXaGiAn8BFAlShVAgaDIV2KGeDk6mQCnQBM8mm1lCFp5FqbpvDCtg25EhFtQVHOHMoqMgKKwBLAUQvkOK/GsCGgmQIeT+Omk0gxBTRjXgElYUfAZQk5OrWICPQIOVpzWrCFtNFYdZbhJlZebuEm6W0VcvRITLfWqoNAM4ccr2V4UCBkHIJ0xrQEZ+MwZmI6oIygS4fcrBTjvpkCNHPI0aKbHueiZFoCLUbjkKIAjpqA0yF3DygjHT1B9scff+Dnn3/G559/jg8++ADnzp1T+vfffwdhd7985J212hogR+utkn0lVKhcQVltjzZ9VFlx9RvWR52H66h4gk/gpAWYNuzo6Ahz4Z6ajKOW/IWncwG5EX3QcucT8NoxBAY6VdBiCW1hlLDmMGjFZNEZrTvpjNN1xh09zL0JM1+nOZyYWXIEnNqomYA77AnD4ZaZhMCToUvO0zGshaDKE2C02kyWWxDTaMVo6cmwJvNTCEcRXhNuHC5VDimEG2HHYctAzsGZDVmaDVVyaDa9fTKfKXe3ezYHucRq8EsyzreJ6/3UBHeNC77RoWNqAgFXA9QqHF8d07jLSNo2Wuaa83vpnpm11XwfF2xPiXYxzvVxji/eXYU5NDoziXOCHipuelw1VTbLV89IqGG6Zt2M9aumLMrsrFfdkssjkT7++GNs374dM2bMwLhx47Br1y4FPQLhfvlo4SbhooKcFk6EDq9pvZUuWxrT/Kbh0OFDiEuMw7ETR9G7b291j8OYkpZhbRkMC+DMN4uW+MKDmziv2DbkCLiSR9rhoaPtUeZYB5Q51klJuaOdUPZIR5SJ6KCgRhApi45OKEc6wiGml9KMKx3eDqVC26NMRCclZY90NoUljuVQyoYbReVJA6aUUTGyK8qd6IJS4e3UvJ2auxPgUSvo3cWSe4AgR8AZxThUqbXe/M7UhP/Z2kpmptaDVmadrQfKnDP1LYrRI7M2FpxvoHYjmRrjhjln6ymIEWic79MK42Ylc7mCUfun1IYlYZ1mptaB3xkOpxLGd3cg0SGXRyL9+uuvCAoKQpkyZVSHOmnSJHz99ddqyDKPRVpdNgGbVlsL5AigsuWNbd+rz2O4cvUKbv91G1998xWefvZp9Z1wyFLARsiJODk5maw1AZyATa4tWXIs696Cz7Yh99CJjqgY3R2O8b3hljIA1VIGwS1pIKonGsUtbgDsjnWD3bEeqHy0O8oEd4JDZF80uDAWjif7oVRgO1Q80g3V4gfDI+FxVIsfiKqx/VE3dbja/Jn5Ke6x/VDtdF94RPdWUiPGGK5+qhfqxPZHw7ND4XnlaTS6OBIe8f1R+URXPBTqo7RrXD84xvaGfVRP07o9GZ4013ez1u52z/otOeNwonG+jGGjJccdQ+ak1sW8NxtgwVuNsPAtLyy53ApLLrXF0ss+ShheliarLrYHZeVbHbDqYkesvNQRyy92wLI0WX65Pda+2x3r3+uBuWdawDe6Ppa91Qarr3XBwvPeWHaxHZa85YNFb7ZR1/PPtgSF13eTBRdaYtnbbTH7fENMVevjxLPSDHZpc5nisCI6Oyhauq+GS5PcFVQfqPPkLl++jDZt2mSA3J07d7KFlUCDQ5sUXlvjR+qp1UUJOQGMOJ4QOrTm6GxyKuYU/rjzB764+TmGjxiu4sUZpap7VVAEUgQYQefi4gJXV1elGWacvb29EoGcQFK01OHeaNuGXKmj7eGU3A91L4+Ae+pgBbh6F5/Co2+PUVIjyQiueueegmtMf5QL7YJ650ah2bUXUC1uCEpy8XiAD3i/4cWnUT1xsAJd/QtPofbZYaiZMgQPnx+B+ueGKWl6YaQCWrVTj6HRueFoffVZPJwwCG4ne6rrJpdHo07KEFRPGYxqiQPgnjQQtVKfQK3zw1D97BCUPd5RDaumzyGmW3aMuxvI7nbPFiFH0BFyS640xov/aYXVN1pi7ftdsP6Drlh1vROWXWmnZMW1jlh+2Qcv3eiCNVc6Ye3VLtjyfl+89HZXLLvQHhve7YVNH/RVoFt1tTM2vN8La97pjPmpnpge9TCWvOmNTR/0xsq3OylNCDIdwUcoLr7QVoUZl5WsuNYey6+20yF3r6AhHT7n5t577z307m0cGhNL7vbt2/l+tLXM68m7anVRQk5AQ00PyjLlHjLBjMOUd/7+Ex98/AGGPTlUxWudUYqVMKg8hJ2zszPKli2bKQ3T29nZoXLlykbgOdgr60/73HsDN1sbrpQ5vPS5quL0lgxvqyy4ehefhFtyfzif7o3a54bikQtPoeGbT8IjZiCqnx6E+m+OQtXTA1EhvDsePj8ajS8/h+qJQ1E2pCOKH2yNGklPGNPE9ofDycdQ68xQBTtacQzXTh6COilDUffMMKXdYweocJPLT6Nm4mA4RT6mdIPzI1R8vbPDwTAhy+OAaqYMRo3kQSh7pL06aSAdcl5p58elv5cRZvK+os3vZ7y2fsgZHUFM23vRszHJDbRQFl9uiBXXPbHkchOsfbcj1v2nM5Zf6owVl7vgpWt9sO56X6w83wVrLvbA2nPdsflSH2y/8Tg2XOyNJee64qVr/bDu3QFYkEqLrhPW3uiFFZc7YUFqa8yMb4alb7bDqssdsPpKJ2z+oK+C4otvd8Waq92UFbjkvI8Kr77SBeay8u0uMEoHLDjnhRlJ9eCbUEczd2hm0emWXL5ZhPfffx+9evVSnWVuIEfHFTqtfPLJJ/jmm28gYLQWuEnLaOEmYWuCXLkK5VTbc1jyxMkTqtoff/qRyZJr7tUc7Tu1V04pBBidUWrUqqGGKnldoUIF1KtXDz4+PmjWrFkG6Lm5uSkPTfO5PB1y0tFTp3fuhFzx0NaoHN0drgl9YR/VHeUjOsIusjscT3SHw/GucDjaQ4lzVF84RPY2DVdyqJLCoUpCjkOZjqf6oPLRrigf3gmuMX1hf7y7Eh7K6njCKJUjuqiwR9xAOJ/sZYrnfYJO0jFMYV6jdIfDyR5qJxQep6OFnPad0sPad8743ulp0tvCFiHHoUtCblZqLcw8U1fNhc1PbYoF55ph8YUOWP9eX2z8z0Asu9AVc2NbYX58ayxPaI/VyZ3wYmo3rD7bFS9e6YON7w7Gsre6YWaCN+aeaa3yLnrTB3NSWmJ2QnMsOOuNxee8seBsS6y63ElZf4yjzElsoUC4+FwbWJKF59qAQsDNTm6mQ0466nuptZCbMGEC4uPjERoaivHjx6NTp05YtGgRLl26lKEKdFjZunUrRo8ejb59+yr92muv4d13382QzhouBGxabY2Q47CkQO6zLz/DhEkT0G9gP6zftF45o4SGh2L006MUxIqXLIbixYujadOmmDJlCvbu3YvExESkpqZi9+7dGDFiBGrXro0SJUrAzcNNObbolpx5Jy/X6R07IUePyhJhbdRclwIHPSzptXjI6GkpHpBlQ9qDwv0p1WLv0PZqU2VurMzTA8QxhenpSELRhrmsoESYj8lzU5YZqDjNcgGJlyUELEN5c4ZymQO9LWV4MqcWXOb3tgS57OLUZs95WSdXQOvlxIIz17TmjFIdM5JrKKG35ZzUxlh+tbWaP/OLexRTTtZV82vchku25Jp/phlWXW2PFVfaYmZKY8xIaohpcXWV+Cc/DL/EupgeW0ttzzUruQF84+rCP7kB/BIfhm9CPaWnxtbB5JiaKjwjqT6yEt/kejAKrThLR+qkzc3pllz+McLhyscee0x1nrTooqOjcfXqVezZs8dkFaxbtw4//vijckj57rvvEBMTg+PHj6s0/fv3V9YEh8foocl0/FiLRaeFm4StGXJ/4298/d3XWLZiGWjFEXQ3/vOOatNzb6bi4QYPq++lVq1aeOaZZzB79mzMnTsXBw8exM2bN1U6/tgYNGiQSsdlChSZA7y3VhyHLG1lTs5yZ09oGOeyzNzz0xZ1C7BKc6uuIB/TbiZGsLVRJwfQs1KgRihpRZYHqEXiLJNLFAK8jMIwAcd4c+G9tOUFLE/dVzBMh5xlMMl7mut0uFvOd/f71go5tSaNa9M0W3mptXOJDyvg+Mc3gW9sY/id5l6TjUyAk30nZyU1xszERvCNrw+/xAYKXgQdhxSVxNUG956cGs2Tu40AJNgEhoSdMT2HIbOWaQl1MD2pLqYn1dYhp3qte/gPO8SePXuqDrFbt24mq43wa9GihYofOXIk6IlJwF2/fh0ffvihWmdHaBw6dEil4dAZO156Z1rTR8Cm1dYIOTqe0JL765+/FOR8/X1N7Xo67rRq0u9/+h6DHjfCi0OTrVq1UnNzbPvmzZsjLi5OpaOlPXbsWJVf4CZDlvcv5O7eKWffkdNJw1sNVwrkOHTJM+aMYjwVQO6xPOPwJoc4eXqB8Tw6dcJ4Wh6GtdfpZaXtOylr9MQak2tzbeF+9u8j7VGwcJPnFjXkTDuoiGUo2uSKbza3lWhcJzclsRamJtXG5OSamJRUA5OSPJRMSfIAZXKCu9JyTfd+iuysIovIqacmuGFyopva4YVawum7vsjuL5k18xvL5ro91k3qK1q35AqMI1rIEWZffvmlKvvatWvo2LGj6ig5/PXDDz+oeMKOwOCHOjY2Vi06ZkfL4UtrseBUBdPqqAUcw9YIOTqTEHK05LiEgMOVbFMK187xQwvv8aGPqzg6nlSsWNGUhl6Vp06dUum4uJ/fGfPWrFPTtGSAQ5Y65KTzN9dGyKVDzHhtmptKA0/6/Yz5TQAL8Uo7laBV1oBTEEw7SidtQ2i1p6Ycr2NJ8/maeC1gBTyWtQ45ozt9OuQIOiPgMkNO4CZa4JMd5MzBlh3wdMhJD10IWgs5zu+IJXblypUMkKNzCT8CMe6Mwk9ISIjqTOnkwDAdUqzpYw64ooScFjAEDq0rcTwh5I5HHsc/+EdBbuxzRkuMoIpPildNSvhpISfLB5iG86fnz5/HrVu38OqrryoPS8YzDZcUyLo6hu+2jk5bx7yFi2q4MiN0LHf4OUljDruMeXjcjRJacjyQNKKVEmXZpJ2+XSK8JSjFw3i+nDlkPFW8JUhp48zDfB/zOPPrvL9zxnfMSTnWYMnJpscZrDqTJWe23iwtXmA0Kbkq7iay+Np8vZmsy8vwTLEic6MTqxr3sUyzFMViNGnTPpfpmzvL+1Kb1ysn1w/sOrmsIMd5Oa0lJ/ATyFF/8cUXoLOKl5cXjh49ip9++gmEH0EncClq4Ek9tLqoLDmBhjiB0KNSFoObQ27M2DEmK02GK80tOQKMziUUOgLRiejAgQPgDw4Cjov81Vo5e/tMC8cFdFKngtM5h9zjT/ZWW3qpbb24pVe+tvXKfUdtuTPPOeS4KTNBRtFCTuIsAU7iBFDmdWC8Ns78mvfM47IqS1tOQYd1yGmOy8kN3CStDrnCQ0NOISdODQI5Ao0d6rx585CSkmKy4AgTfgQqhfcmlp8k9dDqooYcgcK5Mlpx5pbcv/hXWXLiSUlYRZ+OUi9HyMn6uWrVqqFSpUoKZh06dFBOQBMnTjSBkfmYhjBjOoGauS44uOV+nVwGyIlHYQhPv26Rvm+lac/KjCcPFHSnnV5e7iAn0Mq9LigoF005Wsi1ONMl56cQaDr5nFgfd0sjGx7fLU3me8Y5L7HUstKZ8xktQ5Mll43FmFV+bbzWsjJZcGLZmSy59JML5H2pteXkNKx93sxkD1Dmx9aB71FXNOlRXfUdlR1c4ODipub61WYTjk5wcXRSI0G8NhcDt1mSyOrVjYXQM9GaPnmFHIfG6Lr+zjvvmABHECYkJCgHFb6jALEo31cLNwkXNeQIOEpFu4omyFWv6YGg0CDVVNzxRGBGWHGROD83b93E4CcGq/+MXB/He3Q4WbZsmWkOjksLGjRogO7duyvh8CTTCdysabhSh1zRACod6Hl/voJcUHN11A4h9/SZxjk7akeHnBmgxNHEXFsebs0p0LJOZ3yOQG5eTG0FOc++dTNBjvwi4O4LyLVt21a9IIceb9y4oRZ20zpr3bq1iudaOO6Owg8XfXOZAfPQghg2bJiSp556Sm0PNmbMGMi2YIRKUX8EbFpdlJATwFGLFUUI8frI8SNqTu79j97HwMEDVNvzHrf74oeQGzr8CVM8h4m5ppGOJlFRUep74Y+Mixcv4uzZs6AjEYcyixUrZtrmi7DTgk7qUNia7zVweE94bh8Erx2Djadc04swkyVndu6buedhXq/llOs8agGFyTElj+XYbH5+V0Et4R7eBC3OdMPTZ5oomZpcHUZJP0pGa0EYj7mx5E1o3snr1+L0UpDaL6EaKLPijTI7uhGmH6uLdsONkKtUxQEOLq5wcuJJJlXg7CDiCGeHdBHjzWotOYEP5854CkGpUqVUx1muXDnVUXKt2/79+03xqqM9dUodzUMPPloJjLMk3CKMkBOo6JCTYbzMmuvXSj5UUrXjgEH98e57xsX0v93+DYuXLQa38erRqwe4Po6fb/73DV5a95Ja4M0fGIS17DRj3s50FOrXr58qm3NzWrCJVaeA55C5XoUBPB1yGYdfbQ52OuQsuP1bP5izglyX0Y+ovuK+gZx0iB999JEaclyzZg02bNiAbdu2qXPlON/GYdWXX34Zq1atAu/Tc5KODbQUli5ditWrV6v4FStWKD1//nxwWzCeamBNHpYCW60uSkuOABHHE3pXsrOnAwpPHXj5lZfxxv43sOnlTfCf5Y8mzZqoYcvNWzZj5+6d6v6MmX4KfFwIzh8inBelcDH44cOHVfvzu9q4caOyxEuXLq0W63M/Sy3cJFwYQLP0DCPkusNz+wB47Ryo9ls0BNP93nxOzjotOZuDUkFbmmmQ84hoqiw5ngzOIcupye5pIpZcmnegzDWlndRdkNaJXlbO4ZoOOQ/MivfA7KjmmH70EXQaY9xkgpBzdK1q+5acQI5algJIHOfRRP78808V/csvv6g4XovQWuMQJtOKZcjE1gQ41kcLNwkXJeS0gJMlBOJhaW4Zc0susfS093j+nPbaUljrWcndaDi+LmDTaksAKow41nngcB1yNgtLDeQ8z3ZXjic5hZzlxc8576h1qOW9rcwhN+tUU0w70iAT5JydeRhzFbg4OSjRDlUybPXDlQK0/GpCQ4AoAKHmh/HW8NHWS8JFCTmZi+NQJR1PeDK4glaxzMO/CnDFM8dzGNMS2LRx3N+SnpsEFsFaGODKzTN0yN0fw5ViyRFwGSHniqnJmjVeaRbc9KSa6mRuI+iMC7T1cOG1A08tp8yKq2WUU80x7UhmS46bTWgdTx5IyAkwRNOqk7k4CeuQu/t8lwCPFh2P3eHWXhQOX3LDZq6dq1a9mjp1gCcP0AOTcUwvQJG8zM+wXDMdy+G1Djlvo2OL1kmloIfvHrDyuPML9/kUx5MxKY2y8K5MW0+Wtq3WtMQaOuRMbVF4cJMfElrIzYytiZknm2FqREOTJVfZwUkNVxJytNbEu/KBhJwlgBF4/Aj4LKUp7Dipi1YXpSUncJJhSy2AaNXRumMa7X3CkCKbLcuGy9TMoxXzNPI8a9O05Po/Se/KJ+C1YygMQW2NYjYnl77+TNzd776OTbwec64z70iS/szc3ysR0hyUbIchtcC1tXBYa7XHJ09rqHmkCZondVKAI+jS1525gKdYp7uyS4euQ06AUxT6rpArbkA65Dgk6aBD7m7AEuDdLU1h3NPCTcLWADmBjgDMXAvImM78nuSlpgWnFS0ctQDV5rGG8P0MuZKhLe5vyKkTx42WXPXwxjrkitAyyy0odcgVIHV0yN19qNIcNHcDmaRlGglTW4KYQE6bzlrCHEIlkAlwQm7kuKFouXci6m0eAUNQVxhCesAQ6pUmnjCE0pKyDQvO3PorGeoFSomwjigd0QVljrRC2aPeKBnqBsMhB3BLMFuVkjx14YSXktqRTvC+0BDj33TE8xec8fwZN4xLdsWERHclpuFJnn4tx9VQJ1bTpQjawD+hGihz4mphdmxNzI5shunhDdFxVH31N0lLzqkqdzwxt+Sc4eyQLg+M40kBMvGeFfV/7J0HeBVF18eXGlp6DyGU0DuKgvROaNKL0qSTnkB6IHSkgzQpUgWkKigiolQR9BVFhdeGYPe1i6LS+X/PfzbnZnNNIDd1w3eX5zCz03Zz78z+7jlzZla0N2NoJk1OAJQVyAnAMoKbtGPWkPfM+UGaY8WbtFWnpvCa1hUukzpC20RzJUFHuBF0hRdy2s5G0DbWgLa+GrR1DaA9Ux/ahqrQttaGw94KcHqlaqEFHMGsbW8EbVtVaFuqwHVrMVTa74ZBr5fE4KNlEPafiog7XwvBb1RQkhnkIo/5wS75/xlMPOIHigJcKuQin69pgZyjq5sdcnlGozxq2Ag3iZsFckozc3VVC7W5WNsoRjd/idPbySiSnpMwP6AocCbkqMHVrV8HAwYPQPykOISsTEbE6hRUWdgRgYs6odi2JuplpNrzzZBeWkB7npKabnH00GEoUMxy+HyjtP0xczO+pwmKvtgCdfb0RP29vdFv6xgl7dZ0Q6M5zeC4phqqvdgK2vMPFj5RZtjm0PY0h/vmzqi8tz+67Q1Gz5fCkPxyb4RuaYPRO9wx4ZXKiD7mpCTiuAt08UDEcQ9EHnNLL8ddEGmXfPsMJh5zAYWQi3u9ImL210fozmpoNaSaGpt2yOURiPKyWQGbMSyskMsJzDKrm9eQEw2OgBPI9RvYD9///D1+/fNXnL35JT649RV6HIxSoNPW1dcht7c5NMoLIi2hvUBpngq61JeZWjZwthF2uQW23Q2hibDNnbyPJpiNHUp23nwNlEXfPY0Be4bDYXlFlN9eCAFHKBNy/KGxpzkG/7QY0diKVbcO4OmbL2PvT7Ox4NRIjN/jjcj9AZhw3Bkxb7gg+k13XU56I/qkNyae9LQSd0w8aZf8+gzi33AHJfFoFSU0V4bsqIrmjwcqyJVxdoG3fwVlrlTr5FL3rjSaKhm3myvzklo2tm2Em8TNALnMoJPf6fkFOdHmqMmNHj0SN6+lfpF3uCfqLey9uBdNRjdBxRWtUGdTF7jvDFLiuSMIunSF546u8NjeRYnbc51Acd3WMZvSHq7bclfcnuuA0uvaQptTFy//dgwf4HPg+m8A/sKXv32AxDkh8JzUCA890wsuW9sVOnHe0hb8G7WFtZFwdCmO4BN8DeBPAL/hJ5z+9CRGzvfG7BeaI+loHSXxx+pAlwaIP9YACUdFHkLCUbvk92eQdOQhUJJfb4ak1x5B/P4OCHmuKZoNqqkg5+DkDI/y/nbI2ciZAi0uYDOGdsi5W3Y/KSjIXf9bsQ24dR24fQMvf/0yHhnXDBWWNUftjUFwJcBSQaYDLQhuzwVZIOexvXMq/ASCtoad4Lkj5+KxvSNEvHYF6ZBb0AAv/XwE7+JT4O+fgVt/4od/PsWUhVEKcg+u6QkCo7CJ46ZWOuQW1ELsa4vxKs4R4/gSwA83vsXB/7yMNsEaBs90Qd9VxZX0WlMCupRGrzWl0Wd1qqxyRh+75Ptn0G+VM5Ss9EDf5e7otTAAnWd6ouGjAdDKaHD384Obr6/d8aRAqWXjxY1wk7gdcgUDOQJVNDnoL7XANdwBN4/b/MkuBD5WF96x1VAppT5cZujiOr0+dGkI1+m6uExrAJepzZU4p7RAtmRKMzjngjhNfgQivKdiExpDGxGI//78Bn7HJeD2L0rX+fLKh5gwawzcxgai3rRWcJncvNCJY1JTuE9tBW1MIBYdXo4P8Ql+BvC/O8D3Vz/G80c3oOajGpo/oaF5VGklTaLLgvJIlCOaRpZDswg3K/FCswi75PtnEF4azcJL4+FxLqg/vBQqtvKC5qHBJ6BiKuT4JgJvwzq5NM9Ku7nSRgjldXEBmzG0Qy5/ISemSiPkfvz2Z1z++U98+fv/8PXlH7D0rbVw6ewHbbgzSo7xgBbmDS3UC1qIiA+0UF9dwvyghdWAFl4TWnhtaBF1siG1oEXkgqh74H3UhBZZB9rIqtB6u+H1D3fh41/fxOVvz+Hqz5/h3PdvYlTcAGh9nOEdWhMlJjQsdFIsqj5KxzWGNtgXsVuS8dpPx3Hup1/x/vc/4dLvZ7H91dUKci1H2SGX79Cy8YdCi4gyoDQNcUPDkWV0yLlrylSpa3J2yOU1m3KtfSPcJG6HXP5BjmAj5KzNotTounXphgrje6F4z6YoHtFISZEJlVAspgqKxFdG0YQqKJpYXYmWUBXppTq0hMylaGJNZCSWOolVoeVIqkBLqPxviasKbWIVaCMIbG9oQyvo8kQAtNFVoIVXRpGJNaDFVkWRuGpWf1NO78mG+nf57CyfUYZlakObWB3a2OrQRlSGz4Qm8Ih4AA+N8lHSeoQD2o4qjeahLmgZ7obWEZ5K2kS4g9Iu3DNVGM+JuKJduCvaRTjbJK0jHUFpGVEqVUqiZYTt0iKyJCjNbJSWEeVAaR3prCRnn0H2P7824Z6gNA/2x0OjvRDQ0huamwZnHy+4lveBtwe1uDSxO57kGpJyvyEBmzG0Q84ckOvR7VFUiRiA0v1a5Drk7v6grp5DwBG4GQCOaQK5cRWhjakAbVQgtJFVdMCNrw4tuhqKxtRUgCu0kIutAS2kNrQx1VAhvjm8ox/GI+PKK+kwpiwoLcJcTQ251pGloSTKAa2zIS2jHEBpHm2bCGTNArkWoRXQdKwP/Jt7QXPX4OjlYYdc7mMob1s0wk3idsjlL+TSaXEeznD1cFZzc3379kT1uMEoO7gNSkQ+oKToxMq6JhcXiKIJVS3a2D2hlaHWkbmml14rNGiJ1trdv9qtCS2BUh1aPDUF6jRyAAAgAElEQVQxK4mrDo0SU0OX6BrQoqrpEl0DReNro0RiPRRNrKtEbyu1vX9d6273n9M8+TtsDOPqQIutjWJRdZWJtmpKOwW65hEV0CzcHx2D3ZW0jnCHLplpct5oF07xtVH0eh0jvKCLBzpGZEXc0DGCopftFOaKnEiHcFdQlDZpU6hrXx3CPKGLNzqE5b+IBtk2pBJajfNHhWaeCnJl3Zzg7ucFbw/fdGLX5PKWUzlqXcBmDO2QMwfk+vfvjZoJQ+E8vANKRj2ohKbKErGBKJJPkBNzqIRaUnWkl5rQkgxCwCXW1tMIpcRUscBOzxeIFY2vC0qRuDpKiiXURcmk+iiWJKCrjaKJFN28qq7FduWaqeCT/IzC7P0AsBFuCuw1ocXXhRZXByVjGqB4dD3UmN4JVSa1QasJldEiMgBBoZ7oEu6FNpEepoZc5wg35ER0YLqhfaSNEuGB9hEeqYAj6PIfcLymHXI5woq5KhvhJnE75MwBuQED+6BW4jC4PNERpSY8pISAoxRLrK5EHurZe5DfW9uR9q1DC2QINKMkEEZMq6tLQm1oFKbF14KWVFeXyTWgUZKqppdJNaBRUusRerrURomkOnrbqddQ1zHEdRgKFCXMrhaYA8jF11WQc0x+GNWndlSgI+RaRldEl3A3Ja0jvKFLek1O5oLahHsje6LPJREUSlIhI9BJC621Oxd0jKCIJueJzuFeCsiEssCZcVukc7gHjBIU4Q1KmqYpGmf6MG1uUuYo8zvUNUrR5Co+omtyjm5O8PTzgq97+VTxha+7b7p9K+3eleZinOW1PwI4hnbImQNyRk2u0EAunk4j1VFscgMlClaEGyEXVxNaDDW72tCSqY3RDEoHlSp6PDEQGiWpqtLkqM3RdOkwqQFKTa6Pksk0YdZGsaQ6KJ5cV4W8VsZwK1jIUYsrm9AYgZPbotqUDmmaXJirqSHXIdwd7UPd0DHUA53CdK3zXoCzzue5pHUKc7dAjnEj5DpFeoOSEfDskDMZKArz7RjhJvH7DXLc85I7pXBfS1t3TEk3X+Zu25sTslXXOCc3oDfqxg+F27AOKBn7cKoEoqQZNDmlrRm1uLookmpiJJyofWmxNaFNrKXLhNR4aGVo4YHQpteANqUatDh/XZLpdVkeWizPK6BkTB2UTWwI54SGKBtTF2Um1oJbciOUjamNUtE1UDK6Bhwm1kTRmOoomahreIQfJT30sqvJ3VvLzUh7phmWYHeIrKukclxrBCa0s0CuU7gzOke4pGpx1OYy0+R0jSxNs7Pt3FqTu7fZsBzaR5ZTgGs93gmdQn2VdI3wBqVLuAeCwtyVFqcDTNdIma6LruEJ3ET7E+Cxrl7fA10jPC2w6xTpi47hPv8CnZgLxes0v0K5LmGvgB9SCa3H+qMyNTk3Tb0hhC9s9nMvnyq+8LNrcuZGoIDNGBYWyMlmzEZwCdCMIeNSVtKNde4WzxaosgFDyzKCe0Cu+MTKKBVXteDNlZlATourpbQwzqvRU5JzbcUS6qvQIbkRNDqajPKFllQRZeY3gpZSFVpseWgxFaCNdYaWWBFachVo4wKghQXCJbGRAl2JyGpwn/SggpxnSmP4zmwG7xlNUTq5Hkok6NqdaSAXVwvFw2uhWFhNBExsCYKOpkrOyZkVch2iHBXkOkd5o1uMH4IiyqNzuB96RJdHt0hfdApxQ4fxLsppplOIBzqFuigR+Km0EA+LBvdvk6YOSYLOGnIEnbVWJ7DJL7jJdeS6dshlgVuERmE4jHCTeGGAnBFWEndxcVFvKhBoMV3EOk/K3CvMa8jJQnAJuT7uiVHD8N5H7+PCNxfx/C//VTLj043Q+paHFuqHUjGBKJFQXYnMlWWkVeQkrWh8dVCKJdZUItdJC3VzoDI9KqcLgqYetAnVUTq5AdpvGYF+Byag+cpBqDOrM9qtGorhLyeh3ephcA9tiKZL+mP4K8kYtD8B3Z4LhV98U9SZ0xV9XpqAR/dGwCfxIfinNEPQrpHosz8M7Z99DN7x9dB+42N44nAcRhyKQYd1A+Ge0hilY2tbzJcFqcnxsymWVAvaCGf03TUBK37djwM/fYBXf/svzn5zFhte2oCa3TV0j/JCuwgfNedmBk2uQ5Q72keWQbOxRdBvcjXMen4Apu8YjEnP9kfYU52ULHhhNJa8OA7J6/ohenk3TNrQCzO2DVBh7KoumPJsb8zZ9Rimb+2LkbMbo09cJUza2BUzt3bD6Nl10XFcKUQtbYyZW/pjysbeGJBYC13DKyAowldJYYPc/9s5ucICNiN8BWzGsLBAjtqZj48PvLy80pkheU6RncDl3NvbW5W/F9iM+QUFub9v/aO+pvO4AYoFcsE+poSceEtyIXf9jf0Q+cFCzPrfswg5ORsD98Ug6f0VSDm3GpGnF6D50oF44uBkpHy0FlMvbsKkT55ByzWDEXzqSUz5agOmfr0RPfeFK1CGvjcLMR8txIQP56Dx8q6I/XA+Zny5GiNfi0W7tf3gnNwQZePqKshxnk7m6tJgl3/mSiPkIk8vwj68j3P4DefxO7699i12H9uNKp01tBpZypSQe2iEhuClzXDwq3lY/2Y85u0bhdi1PbHwxbF44cMnseq1SExaP0BBLmVTH6x+PRzb35mE5QfHY8OJKGw5HYtNb07Ewn3DEbOqLTaejMD+jyZh6+lwhCyojzWvD8X2txKx+tUQjJvXHN0iKtohZ3wYF6b47du3QSkM0DPCTeJmhxy1M2dnZ2WCrFChgkV7K1OmDKixEWZ+fn4KaAzLly+vhEAk+IwQu1e8ICA3bNQwXLmtQ+4aboCy8f2N8O/ujyJjveAcw/Vx+k4nolnlRGvLuG6qd+G/zJKGeThxm1cejnSdr4UySY1Q95m+aL8+FMkfPYsVn+xD0pGVmHdyC5L2L8Pa915A/M75SjadfxmUeYfXY/TKeKw+swcDn4rAhN1zseDtTeizeBwGrgrFkg+2YP67G9B57hAsO7cJqz55DsEHJ2PQc2HwmtJEzdkVT66PEpMaKMjlzpycYW3gv3aTyTiP30mx5BrQRjhi8vE1OIoL6i0E36Q+vN548w3U66yh/VBntI/wUevgMtXkUndAETNaVkMxt6V5Ucr6t8xCF3SKdEXHyHJ4ZFQRRKzsiMPfLcfWdxZgwYsTMXXLGCx+KQa7312I1a8lY/b2EAxNaYO+MW2x/OXp2P72ckzfHI51h+dg5zsrseXkYszaFo3geX2RtGYU1h+ejd3vLEfS6mF44d2l2Hd2Nba8sQCxTw9E94j6CIqogC6RFQuNufL/jXelwMAavJmlW5cz07ncszE0O+QIOGpnBBrNexR/f38FPoaEnaRLWLp0aQU3MW3eC26Sn1+Q47vkaLLk/RJyv137EzdxB1fwD/7CVQW5gEcDFORclEdhAUPOADiNHpVxtZSjScm4utBCq+CRFSMx+ZOtGLdrJnosCUbyy8uR+NJSbDy3H1NfXIaoZ2cqwK1593mk7FuK0HUpCoDtJj2GEWsTsOTMVnSeOQQdZg9SkFv0/rNoNbUvovdNQdKhuZh4fDamnV2Oqgs7wiGyJgg55fCSa44nGYMs00XyamF+GuRmnN6Ik/gKPwD4CcCNW9dx4uQJPNSzKHqF+JsScs1HF8WwWQ9h1bFILHo5DquPTsX6EzMV6Jbuj8Ga1ydh88nZGDenm4LcxmOLMH93PKKeGoKNxxdg04mF2HbqKZXWfnRdDEvpjM3H5mHaxmCEze+F3e8swbrXZ2HT0TmYsyNYQa59sC+6R1e2Q85MUOC9XL16Nd0tUWvjcfnyZXzzzTf4/fff8eeff/6rXLpKJjkxwk3iZoaczLExJOQIPAKpSpUqCnyOjo4ICAjAgw8+iObNmyMwMNBi0pR5OdahZAV4eQ05aZ+Qc3J1UpDr/3g/nL/4MX788xd899cP+OK3rzHr5dmo3LsKtJHuyC/IUSNSc24ZhRbIcWlALRRJhVyxibVRZWkQplzagMmfr0fXZU8g6KlhiHpxFuJfXYAFb29A1J4ZWHN+FxacWoeY3TMw/401iN/7JNac24lFJ9djwYm1mPX+s3hsSxxG7JyMpDdWYua7G9F12VgM2RqD6ENzEP32Esz8/FkEzG2P4pG6s4vy5kxdnyfmU9HqitE5xQaROcmshJy3NJbTgn0Q/PpMrP5lP964fFHJf/93HrsO70T9/hqaDi+C1mFeumTmXZlvmpwbOkW6o8sED7QY44AhMxtj6aFgLDsUg50fLMCWt2Zh6pYRWH4wFuuOp6jzsCWPImndaOw+uxLj5/dG9PLHsenkPCx4IRbrT8zGykOTEfXUIOx5bzn2nV2HqEVDMH52T6x9dQZW7E/EhiMzsO7IJHQLr4O24zzQY0Il00KuY3AltB3rj8CmunelaHLeHuWhi77ziYeHF4wiUyUa51TkhA8m/op97bXXTPL4T38b167pb7Ek0H766Sds3rwZly5dshS6fv069u/fj9mzZyM+Ph69evXCjh07FPgshUwYEbAZQ7NDjuZI9hWaIhMSEjBixAh1Llpb586dsW/fPpw5cwZfffUVDh8+rPoZ81mXwn7H/icaW2ahQCg/QnkzeJ2GdTDgiceQMC0ZyfNSMHF6HHpO6YnAPoFwCPOH08RAy8bFeWWuFDhkCXIJtRXkCLpSCQ3Q61g8nrq8Dwt/2YOkN5Zg0KYITNj/JDZ/+wqSXlmAZvHdEb9vDrZ+eQBbL+7HnGNPo11SbwxeHoqtF17G6ve2Y8CmGHRdMQ4zzmzAuu9exfh9M1E9sh16rwnGoo+3IeWjdRiyPxluk5vAYULqFmAEbQFDTu23GRmAGknt0HbZEIxaMhmPzZ6IiClhGBkzAnX7amgf4njvObl8hhxNloRcn6RamPfiCAW4Z95IQcyqAYha3hvPHJuMbe/MwfRtozFocjNMfTYYc/dMRO/Y5hg2PQjPHJ2FQxe3YN/5VUjZNAbzdkXjPz/vw9GLu7Dh8HxELhyAmZtDsf/cKux8exGmbBqOrmG10DHEB12jAuyQMwMbBHKEwYULFzBkyBAcOHAA586dUw9Sanfnz5/H7t27MXz4cDRs2FA9aP/5R59bYT0zHka4SdyskBMo0VRJYPGH0fLly7Fs2TL1fTz++OMqvXLlyggODsaaNWvUd7NlyxYLBDkvZ0bIubg5QxdHy71Wa1AVfn2boEyHmigxPBClRlZHyQkVUSqWmx/rc2YCI6V1cW4sXkT3jjRqGLbEM/eqTN1eS7bTslxPv26phHrwm9cKNRY/gNrLHkbtRU1RYVodVJ7ZCA+t6oiqc5ugeIgPtNFuqLOsLeqvaA/vKfXgnFgdZWOrIGB+E3jNaABtdCVooTXgN68NAhZ1hOu0ptCCK6FsbGPUWdkPFRcEwWXyIwqqJWLTdkIRKBs/l4zinIfUfyDIonGrMNW7NCufmWhyCnCx8paFktCGFoXX8Noo0y8A3kGuqNzHH7VDNbSYrKFFlA+aR6atk5O5tNxaBC07l2Q9dFN7TbYP9UHvxOoYObc1BqY0RtfI6nh0Yi2MmNUCI59siV6xddElohoGTKqGvolV0CXSF+1D3NErPgBhy5ph9LxG6Brtg0FTqmPEk/Ux6slGGD6jLvolVEXf+EBEr+iI4AUtVZudw6qotXhcrmC9IDy3PofstiN7b7YPqYQ24wMs6+Qc3crB088j3b6V3MfSqMUxLspbodLkjIAi2Nq1a4fevXtj5MiR6oHKNB4nT55E3bp1MW3aNPz666/GaqaMC9iMoZkhR9DRkYSQK1KkCFasWIETJ06AIDt48CCio6NV3gMPPIC9e/eq74PQY3kxU0poJnOlj5+PMleWdSoNR5ey6i3EnXt3QrtJw9Eo5FH1uha38EYKci6Ta+U55OThnrFTStpC6TSo6pBz4N6N4ZWhBZdDiQgXlAzxQInx7igyxhXasDLQxrjDPbEGHCL5BgJXJcVDfVEurirKxFSGFuYLLdgLpeMeALfFIti0/uWghVRWQCsd8wC0cXyNTQUUjawDh/j6IOQE+qaAXEwgXKbXQNEYX7R8sjcapwShbXRzJS1TNDRJ0NAy2leBThxPzAK5DmG+aDnGDU2GeaD5SB8FtO5RNdBuXABajfRF+/EVERQeiLbjXBTc1BZdoR5oNbosHnxMQ/ORpdElyhutx5RDsycc0GpkObQe5Yh2Y1zRfqwb2o72QIdxPugUWhl2yJkSCfpN/fDDD8pURpDRvNq3b1+lwTH3/fffVyY0ahJ8+N64ccPEfwkKzbZehJsATsyVBNfWrVuVOZI/LDZs2IC1a9cqCHJOjgCk2ZKaHh1PWJ5aIOftMjNPWqfnh5lSrkFNzsm1DMo4llT32q93G3RM7I8moZ1RIrK+kqLRjVBs4gPQ4nUpHvcASsQ3VsJ4bkvRuAeQmRSJbYRiMRlLiZgGoGhx9aykjtrAWDmq0LwobyWg80o830JQU82dlUiqhZLJ3K+ylpJ/aUuxfJMBF5vrIlC2zLulru8TjdQ6ZHnrNON5ZnCX60hYPJ7rFWuCYbG4aigaWwVFYiqD7/3Toiqg5uR6qBxXHbUja6BOVE08HOGPR6ICFOCozXG9HKV9hFeqMG48l3TbQmvN6N7nspdl6h6S4X7oGO6HTlwUHllBxXkuadIe17fxbQFybh1y/8uMRNpSu51ksOOJtJP2udj29+e0XpsIR1BahgWod8qV51sIPDSUdS8F9/Iu6d4lp79XzhNe7h4WKfSa3Mcff6ycGg4dOgTOxSUlJWHRokXK4YQA/PTTTzF69GiVfuXKFTvksrEDiDVsBHKyDIDAomzatElBjHHOhe7cuVOZigmzcuXKIS4uDu+99x4aNWqkytPEyXS2Z32NjM4FQHkdiuOJu5czvP10L8u+vVqjzcSeaDiar9q5TyAXW1u9isbyqp3YatCUVFd7XhJcSlJfmkqIESgCM4tJMIeQMwIto3h2IUfAEXQOCdVRMr4qGsxsjOrJdVAvupYFck0iKxQqyBF0aVDSQScQuleYEeCYltaeT4bbekm7OYVVduvfC3I+nj6gpL049T6BHE16PM6ePYsePXrg2LFj+OuvvxATE4MpU6Zg+/btWLp0qTKdjRo1Cs8884xaL2dmyhnNlBI3g7lSoGIED82LXBcnc3IlSpRQDkD8nAm5qVOnqu9g4MCB6vsg4BYvXqzMmKzHMtQCnZycsgQ4XlvuIz9CRxdHePo6olRZDZqDhh5PdECLhCDUGt0YGvd+jCQQ+OLR1LduJ1ZB8YRKKJFYRQnjuSXF4ioiJ1IkvgIoWkJ5XeJ89TDeH1piAIolVlHikFAVFG1iALS4StDiA/StvZLKQ0v2hzbJL02SfaElV4CWxDYqQUuoqL/cNakaNAo3fZ5UM1UYz4awDUrqnKN1KBqchNaaXLE4Qq4StGQfaAle8J1dFW5TKqDahAeVNIqsAkrziEAlosmlzZ2l341fHva2hmnvY5P3stnDrHwmMofXOrIsKC3C/fFIiB/8muuaXGmPknD1d4KPl5cSbw9PiNxXmhw99uhF+fnnn4Oa2vr16/Hiiy/i9OnT6qEaGRmJp59+Op1n5c2bN03JOgGbMTQj5GTJAD0qGSewCKuUlBQkJiaqc3pZJicno3Xr1pg5c6YyIdOEGRQUpPK5fo51uJRAlhMYIZpRPD/gxmtw+QDNle7eZdW98u9r2q0BAofVh2OQjw65CO7zWEghF8OHPoFXAdpEX2jjnKGNdoQ2iqELtFAvaBMqpAKuErRJAdBSKkJL8U8TAs/kkCsSUxFahC+0kFLQRhVB8WhnaBFl4R9cG5XC6uGBqEA0nlgNraJroGVUNYu5Mi8g1z7UA7aKgMDWelK+sNdvG+YByv97yAkQhFqcdxOzJNfHcYmBeFWyDAFn1rk5+VuMoZkgJ5AR70PCgBpPqTIOKOtUVsVLli6J0mVLgbuDlymnLwRnWKNWDXj66MsNSpRygI+fH1zc+CYBamhZlbx984D8XfybZDF4227t8OTaJzFv/TzM2z4fC3cvRpf14+EwJPWN2twEOa6aEqMmR40utzQ50Q5LJgUiO1IiuTIoxZIrKtGi3KHF++naWqQvBm4KxsTDszDrlfmYf/gpjN09CQ8ld4MW2QBa9APQYmrpEhsILZ1UhBZbUb2pgG8r0KghihCiiQHQkgnJytAmV1FSZEogsirFp1QHpWRKbThMqQOHKfXSSemUejBK2ZR6ECkzuS6cpjWBNj4ANWc+isGvTMPMlxdh2kvzsWh3nHKjr9RbQ1BiLTwUXUXJI9H+oLSKclPSJsoN2ZXWEa6gtAx3sUiLMGfYKs1DnVQdtmNrXZYvzPXls2sRUQZK/r9qcgI3YygLwo1phSFuhJvEzQg5wk6AQNARCCVKlbBoPQScVkSfp9OKpoap83ZlypWDt68P3Dw8FNxsA13+QU7WyfUfPgDf3/geP9z+ET/gJ/yCXzH7wlZo/StCG+wEbXx5cMGxkhA3aCKhHtByS8I8oVGy216YGzQlLtDCqKk5QaM2FxMAbawLdv9zBG/hM3yGL/ElvseL199Cy5l9oQ3k31UbWiiXEFSCFuZnJV7QwigeuoS7QDNKhDu0cLc04bVtEmnXF1o4xf/uEuYPTSS0vG5SHuiI0NNLsRXv4CN8iXO4iK/xH+w5swJ1hzqiwRPOeDCyEhpHVVaAywhyAqzshHxQE5RSNzugykldXq+w1rdDzkAtAQJDOSRNzgtDKPdsDE0JudRX0Li4OYLi5FoO7l6u8PRxV6FPeS8V9/X3VRodw/IB5VE+oIICXNY1N2sNL+8hJwAXTY6euX//eRXX/7kJ3NJ70Y4Lp1FnSBC0YY3gNaU3HFPa6TKlBRytpFxKc+RUpE2nqS2RHXGc1hyUMlObovSUJnBIeUiJFvsgtDGBOPvTBfyMq8Adfbegb2/+heBpidB6PYhK8YNRIamnLsldUMEoSd1QIZ30QIUkXfwTu6N8QjclvvGd4RPXCd4xHW0S97jWoJRObKikeDLfcJAm9Pg0Sqmk2hApmVgLZSc/Am10ZTz1zgv4D34Anw78C//C//Dy8R14sK8/mj5WRXlZ0gGlVZSHEplz6xzug05h3tkW1qfI7v4Mu0SWt0sWPwP9tT++aBdVTonMyVV8pDw0Tw1O7mXh6ed2/8/JFQZ4ZfUejXCTuNkh5+rhDDdPFzAUIfgYF20vLaQGaKuJ0gi6vIUcAUe4UWRbL84tEnC3rqf9gNrzxTuYuHUJIj/eiQkX9iD80iaEXNiA4Aur0knI56uRGxJ2cQ0o2W0r+OLTUPLl0wj+8mmEf7MW0T9swMhPVqL36Vk49+sl/I605TVf/PM7Nhx4AU+8shaJ77+E2A+f0+XcJsSmk2cRe84oWxF7TpeE/25H4kc7kPTxTiR/ugOTPtupZPKF3ciqJF3chsQLWxD15UolwV8thlFCv1wMo4R/uRgiYZcWIerrDRj09mw8899X8T5+BbeC+AN3cAuXcejUHjw8sBJaDK0GAo5LCQRynMvivFbHUC+0D/bMlrAuhZA0gs4OuaxDXiDXJrIsKOkg56XB2cPRDrmswsUs5QRsxtBUkDOATICWpdCybMEIrOzE8x5yMu8omtzwJ4bixjV9p5yb168Ct2/hy0uf4+3Tb+LK5T9w+bff8ftvf6TKFfz+my6Xf/8Lf/zxd6pcwR9/2C6cU9blMq5c+QN//X0ZV69esUH+xtWrf+Pvq1eVXLl2FZS/rl/DPzeuq7ZPnTqlnLLomYxbuiZ39c8rOPvOGXz1+UXcvnYd/Lsp12/8bZNcu3kNlKu3dPn71jXYItduXwflxq2buHn7tpJbd+5ARNJu3LoNyrWbtyzhlb//wW9//40PPvkEr711Hr/dJOCAX3AT3/71N3a99royrxfzcoRbtQooVd4NpSp4oXRFHzhV8odLYAA8qlZW4lmtCkS8agTCLvnzGfhVDwQlILCSkoqVKqBChfLw8HdTa+ScPZzh4euuPLzp5e3pyS0CdTHuelLo18mZBVC5cR9GuEncDjkjDPMPcnQ+oVdlq1YtsGHdWrzy8n4Fto/Of4g3jh/FyRPHcPXvf3Drxg1yDzdv3gaddkWYRuufkjtc6J8duZP6iijCh0J7qS1C7fOOMtMxdgN3lFy7dVOBjg5aXIJDT+S3334b7595F+feO4u33zyFwwdfxTeXvsg25G7c/Eft9s8d/wVW/9y+Dlvk+p2boAjMMgp14AG37uifEP9Oxm/eBq7eAS59+x22v3wcpz68hLcufYzlOzZj3Z7nMTwi0jKHrLmWhuZeBpp7OWgejijq6aKkuIcLirk7o4ibEzRXR2jO5eySj59BcWdHUMo4l1Pi7OwIVzdnlPMorcTF08UOudwAT362IWAzhnbI5T/kPH08lbnS3V1fHkHYDR86GAf2v4jjRw/jg7PvKm3uNomWL4cOuTt3bsAW0R/7t5XmwxYEcrzrP6/+A+4B+9133+Gtt94CNbq3Tr6JU8dPKMh9+O57uPHPVQW52zevg3Lz1lWb5Pbt66DYcs/py97CnTu3cPM2QafDjlAj7CTUwadDjXATwBFyPP64chWfnvoA54+fwb6XXkOLlp0scONaqgp+5eHn6wIXp5LwcC2qxMulOES8XUuoOEOKj5tDlsXXoxQoUtfWUK7Fe7G1rvFeC2t9T1cHUNzdyioh4CgclxRuIqFrcJ6poV2Ty5fHUU4uYoSbxO2Qy3/IcQ6Rc3L+/n4ol7oMYt6c2bh44VP8/MP/8MP33+LP33/DXSGnK1FUpHLhSIOcgCNr4U3cvHXdAoXrd26DwoPmSvYxmimp0fGVVD999z2+++prJf/7Wl4varx9W7RIKUukZlf0v/sWUv8ZTJVistRhp0OOYDMK7/zq9dvAr9fw15c/49IX/0Ov3o+lQq4cfL29FeR8vJwU5NxdioAigJNQACPn9jDtR0BefhYeLiVBERErgfMAACAASURBVMilwc0NHh6UtDfn2M2VxnFq4riAzRiaCnKWubX8MxvKHFl+hwSdDCpqck8tXqgAd+sGX/OkE+xO6hxWXncpajO63FCaUdYAR4iJJqTPZxkhR5Plvw4jmDOEsw4d0RDvHUqD/7qSTQlyVSPYjHEBm8zNSch6xj/js4ufYdgTQxXk3N284e/jAV8P11QnKUe4u7or8XRxh1E8nN1gl4L7DNxdXUExanGiycl8mx7aNTmbBlZBFDbCTeJ2yBUMUO8OudTH523jIzQve4w85m/aaPrTISdAEHMldSzG/3UIk6zDVKjbNh/Iq7Ah3nvODvnr+Xcwbgz1vy29mZLQM87RyZ966cuLGDNutIKcq6sn/DzdFOTEO9jDzRMUL1fPdJAzAs8eT/8DID8+Dw83d1DkR6eEsoduGujskMvZSMuH2gI2Y2iHXMFAjpqjDCZqcksWLTBocnzU0pMkHzpFukvI4962MLPS6ZrmiTXc5FyhJbNW7pb+ryvkSYLMxRlD3pXl9lOv+u3XlxAaPEZBjg9nPw9X+Lq7WJbAyFZy8lBNC3X4pZ3rD137ef58DjIOrUM75PJkOOVto0a4SdwOOfNA7teff1RLCJQ7pR1yqVpa4YHcd998gbCQsQpyND8K5GQZjB1y+QMtW38cWMNNzu2Qy1se5UnrAjZjaIdcwUFO5gGpyS1cOB+XL/+mvvfbtzmfJQ/3LKhzolJkN8yT3pZBo5ndXwZFC2PSV99+g/EhIQpyZR2d1dZy3F5O4Obu5gmKmC0ltOS702Rmu2T2ULe1rczayet0W+8zt8sLzLIbijmz0L4ZvDAOtszu2Qg3iRdGyHEhtQCCofW5Ma8wxAm5BQvm4c8/L6uvjh6Ldshl1ovNm26EXOmy5Sz7p1reSm+HnJr7soZmbkPL1vayCzepZ4ecicakgM0YFgbIOXu4wiiy+bLsUXn/Q44qkGh2DK2OzDSkrKZbNWc/zd4n8M033yAkVZPjq57kYWuBXCZamvTj7P4gE/OadWhre9b18+vc1vvM7fICq+yGdshlb7zkSS0j3CReGCGX9lCQNW4Fb3LMycCjJjd//lyLJndDLSMQqAmp5NwOuTwZHLnQqB1yac5UtgAyJ2MnN+pmF25Szw65XBg8udWEgM0Y2iFX8IDMMeRyq4PY28nRJ5AR5KjFWYtoeBKm/WjLXl/MDChZBYB1fQ83V9gi1vVtPc/qfeZVOYFVdkM75HI0bHK3shFuErdDLnsPltwccHbI5W4/L6jW7JCza3IQ4gUEBCgPpNdee62g+uP/y+sK2IxhYYAcgSKv08lNuGTWVn7P8dkhd38Mx+xCTjQ6WzWgrJbPrJ9LurRji/aWUVlpx9ZQ7qOgwuxqcFJPuGb3rjTBODbCTeJmgJwAjGFmHV3yCCBrsa6TUXuSxrLGuLGusV1jel7H7ZAzweDIhVswI+S4B6Ox/8o4MqYJlDICl3Wau6vzv0yZXu5uKk3asTU03ktBxAVW2Q1NBTk+2OW4fTv9BD7zmGYsI2Wtw9wqY91uXp/zvq2lICEnUHH3cgd35qcwjR2daRLnwOSrabip8d0GAcsb22J7PGcdvwp+4BvEGffw9rCkZ9ReRg+CjMrlVpodcnnd8/On/exCLrfn5PTNhd3g6cl3oXmoPs+xI/3aOK7Yhy1QcnWGEWICL4KOcQrzpYykMfT2dFebGlvv/2hp23gdq3hujaPstpNduEk9U0Eus67OBz8Bd/Mm9+5LAyHLy7k1HKzbknJSR84llHSpJ+3JeX6Eck1jaBbIEUYCKA5CAREHJwFXplwZJeWcyynYWQ9a1pU6xsEs6WWdyqJk6ZL6K2683C1tyLUYyuDP7mDJbj075PKj9+f9NcwIOYKO/dL4g49jQn44Mo9QZDlfb08lBJYAjIBzc3GCK9+15uyo4kbosayPl4cCH9/HJlBjm4xbv75G8o1hdsdNbtUTWGU3NBXkjBBjXA4+9Hl+/ToX4aaB7caNG+rcWuuTdGNZ67ixjGok9T8BjDEtv+JybWNYkJATGPEhL1KiVAkFq9JlS6Fo8SKWwUlNrLhDcVWuWIliFvAReoSbt6+XgiTrSVsMWZaDgXUJRpZnOtsuVcYhrWwR7a7aXW4NqIza4f3kaAlBfnUg+3Xu+gkUHOQy3iWFD20/Pz/LonSuL3Vxo6MVIeeKck5OcHJ1Ub4SLMud+L09PJXwXXiUfy3cdqXnpfu/yqmyHh7Kk5RzjHzw8/U0Iqr9e64TlCVB+RtmF25Sz1SQu3r1qgVkf/zxBy5cuID//ve/+Oqrr9QLHjPrwSzL92LxIPD+/PNPSzsEBuHIDv7hhx/i008/xa+//mrRAFle6vz0008Kpjz/559/8PPPP6sws+vmdroRbhIvKMhRayJ0+NCvFFgJLVq1wMOPPKzSBGZ8+BNE1MIYpxBaRYqlQZFphCVBx7KE4UNNHkKrtq1UnDCTugzZVmD1QFWe58xnm0zn/Rg1xIyAlBdpvA875HK7t+d/e2aBnADFxcVFQca3fHn4+PkpkY0UeO7p462kPPN9fODm4qIAVt7XDxUrVFCQc3F0UkDjy18pPl5eFvARbDz38/FB1cpVUK1aNXh7e6tF8E5OTipkuyJcSsF7sl4cn2auzV+4yXUFVtkNTQU5alcEDA+CKjExERs2bMCqVasU7L799lscOXIEn332mSr3yy+/4J133sHKlSuxc+dOfP755wqGhCLfeCwHgbV3714sXrxYld2/fz8uXbqE999/H2fPnlUwPXnypGqD6efOncPmzZsxe/Zs8Br5dQjYjGFBQk60Kr6eZMHiBYiIikC/gf0UgAY9PghRE6PQ+OHGSmtjmaUrlmLOvCcR1LWzAhiBxvyAShVUGcKiV5+eWLfhGUxKmYTomGg0atwIVapVwbiQcejavas6nzJ9Cuo1qKckaVIiFj+1CAMfG6BgyHuiOYeSF0DLqE075PJrBOTtdcwAOT6oCRGG9GIvWrRouh95Ht5eSpMrXrJkunT2Qb7kleBiXMS5nCMcy5ZT6QQa80sUK2bJp+ZX3HCNIkWKKJARdg4OBkuJpqFkyZLqvqxBJ7ApqDC7cJN6poKcsYuzQ44YMQKzZs1CeHg4XnzxRWzatAnJycmYMmUKTp8+jR07dmDatGmIiYnBxIkTFQy57IFy6NAhpcERGNTcli1bhrFjx6r6jB84cADx8fFKdu/ejS1btmDOnDnqGklJSRg2bBgefPBBVdd4X3kZN8JN4gUJOdHQCJ0TJ08oOE2eOlmBbvPWzdj9/C7EJcaBwFu4ZCHeePMNHH/jmIIXoTVyzEgFwhq1algG3fARw1WZPS/swfZd2zF42GDEJ8Vjzbo1qv2JsRMwe+5sjB0/FvMWzMPGZzfi8LHDiJwQqdoQ55T8nJ+zQy4ve33+tW0GyMlyBD6ARZNr2LAhateurbQ2anBFiung868YgBatWuGBBx6wjJ86NWuhYf0GaNGsGWrVqKkAV6xIEQU3minLli6tytavWxd1a9WGq7Mzalavjnp16iAwMBD+/v4oV06fEiDUqlatipYtW6J69eqWa/C+KHKvBQU3ua7AKruhaSFHDWrMmDFYsGCBghrDqVOnKrgRSHPnzlXAOn/+PE6dOqXOCT1qXyz39ttvW0YPTZlr167FhAkTVFsMR44ciXXr1qm6BCkB9+STT6o2169fj127dqFu3brKvGlpKI8jAjZjWBCQo3mREKEzCR/wBBuhNm3GVAWd6TOnY3zoeDRt3lTBadnKZUpDo8b1+pHXMWT4EMydP1dBatTYUenm1lhv/4H9SuMjGGc+ORNPr16J5i2bY/Uzq7H86eUKckynttcxqCPWrl+rYMp7ETOqQE7mDTPSwHIrzQ65PO74+dS8GSBHLY5aFM2F7FePPvqo+kFOi9RTy5ahWg0dNmER4Th64jjefOs0XnrpJfVcY3nC6sD+/Tj/4TmsW7NWAY/pNGEypNY2Y9o0fHD2LJ5avFilzZw+HccOH8Grr76KUaNGqbRSpUohODgYr7zyCg4ePIijR48iOjpa5bEdMWcSdAKbggqzCzepZ1rIcT6MMKJpccWKFcp0GRoaqr4Mmi+fffZZBSx+SYTV8uXLQeBFRkaC5WjapNmSDivXrl0DwUUNbtu2bQgLC8P48eOVJsj2qQVOnjxZtUct7plnnlGmzVq1aql5OUInPw4j3CReUJAjIARyyZOTFXhoXjzw6gEFI2p31LYIJpoowyJC8dzO55TW1bZ9GwWmbdu3oXvP7srsWL2mPnjZxrPbnlWQnDFrhjJxbti0QZkjqdkReIQfNTpqeMFhwdj70l4FWg4+mj7FZMl7tEMuP3rm/XENM0BOnD4IEZoLW7durQDGKZiDrx1Czdq10bN3L3zy2Wc4fPQolq1cgX379qkf27NmzEQRTcO8OXPw1Rdf4Mx/3kGXTp0VmMqV0X+QDujbD5cufI5//voLh145iKKahn59+uLEsWP4+OOPERUVpcrzmUefB1q9OI3D5yinaZjOcUZtj04pdsjlYt+Xh7rMyXFujFBauHChgg5/hfAXBzW4+fPnqy/svffew9KlS5X2tWfPHtABhZocIfjFF18oELLz8KB5kpoay3P+juZOAo/tsd0zZ87g+PHjOHbsmDJd8svmtQnb/DrkMzCG+Q05QkOEHpHs8LHxsXh+3/PYuWenMi+2btdawYnnNEs2a/EIlixdgn3796m5OzqLxMTFqHjd+nXA+TrO5bEtzsmt37hOAZGaX5/+fZQpkvN01BRp+qRpknAkEHfs3qHMmn0H9FX1eU/iEJNbmtq92uF9Z+x4kl89I/PryHhhCcatz43p7Fd5ffD6/GHJ+XWZY8+P62bl78ou5MRslxshtQsBHTUM9i0KnztvvPmmis+cPRsfffIxBg8bqs5pyqSV6sjrh9GudRuULumATRs24O3Tp9GjW3dLG3Qu2br5Wbx64BV8dO48Tp/U22P7oeODlcZIKxfP+ayjIx5NlTxv1aqVSqPWSEcUptG8qTuh6Gv17jVO8ir/bp+7aGt3C02lycnDnR2W2tePP/6IH374QYGG5/SSZBq9IGUQEULff/+98q7kL5Onn34a7777Lq5cuYKLFy9avC7puSl1mcdrMWRbbFuWKLDd33//XTmcMN/40MjKQMpJGfn7jWF+Q44dVSDHOD0i6V1JBxHxruQAaPhgQ2WuFOeU2vVqKycTan80JdJJhfNtdCpp16EdHnzoAXD5ANusXLWyqs922Ravx3zR9vwr+qulCZx/43Vr1a2Vbo2cmCrzalBZt8t7NBPk2D8Ky8HxY5b7NQPk+MAWk6URcidOnFCaG+fhNm7ejAMHD4JOKOx7lCVLligTJbUynq9ZtQpvvXkKvXv2VOecl2Payy+9hKGPD8b7776H40eOWuoPGzxEOenxhz7rHz58WIFT2mdIZzv+2G/btq0qw/vTAWOHXK6NN3m4Z7dBzuNxLo6hWQaWLX+L/P3GsCAgx4e8gI6LVI0DoUSJYvDz03/pMb10GQeUS527k3J16tRCu/ZtwNDJqRy0oppa6E0tTKAoZbk8QCuS5i2mlhQU1ZcSSBmGBJuzh7MSF08XS1zS7hZaQ8vWc16fc4yXr+gvTb128xpuq/fH2fLt5l5Z6dv0Gqalgj/qaJmgtzBNTvQs5o8/LpehCZ8WD875sCx/1PFhzx+AzKN3MevTlEWPZtalFeSjjz5SbTGfZfmDj3ksx/beeust1SbzaEFhHtN5fbkX5vEezXKYCXIECJ07pI/TXPjyK68oc+X2nTvx/N69KFaiBMTLkj/ev7h4EcHjxqs6e3btwofvv680O7YxfuxY7Nq+AxMidXPkO2+/jRdf2GtpPzw0VH1nixYtUml8rmzfvt2SzzY4BcQ+1KNHD5XOd+7pmqcdcnnWh40Pe7kI06h1ycG4DHqmieYl6+akHEPr9qzPpWxm6ZKfV6HxuhIvSMgJDAgYrnPjFkSySwLj3t6eSnx8vVC+vC/8/f1UyF0UOGgIQJfU7YoITWp53B2FwvYohB7TudyA3pwsx+uKSZLXZhqXDAjInNwdQZHze4Xyd2Q35N9iFsgZNSMue+nVq5cyOXGOefDgwWo+mvPM9ERu06YNhg8frpysBg4cqJyr6KTFX/PNmjVT6XREoCcxzfw0X9HBi6arxx9/HEOHDkW/fv3UtAHnuFmmSZMm6N27t3KYCAoKUhoGwZeSkoLGjRur6/NaLENnL3o2m+UwA+SoxYnnojifsH9xOoVzcnQ82frcNuzb/5IaQ1w3x3z6HNCZZPSIkep8+7ZtOHvmXbRt1RoD+/UHobZq5Uq1fu6hBx9UWh/TAsr7q/KPDxqknOwEcvxhw+kati3C5VrUKMWEKSZA2f0ku+Mnp/XuK3NlTgaDQEEgx/PCdsjfYAwLCnLsmKLNEVoKVlwcTuAYtgMynksZhtTgGDKfoBKRNu8VGq9PoFF7sxVuAr+cDjI+BMwEOZrU+eOOHnG8N3rFcf0o56UZUoPjfDLzCBo6F7zwwgtgX6I2R69l5nHOm04NW7duVb/yCTLm0bWczlecJ+LSHT4Qqa3RI7ly5cpqzpptMo/XosbWtWtXPPzww+ByHM6f8wFKjY73apbDLJDT57ncLR6W/C74w4TaW4lSDliz7hnlWflw06YWANGUyDm5bl26qLTntm5Vc259evXCwvkLcPm333HxswsKbl9euqTO/75yRZkvudRg+NChOHXqJKZMmazqnz79Jg4dOogiqVYU/iBdtXolTrxxDA0b1ldlOM5l+y815jnuC0DskLMaQcZfulZZpj81wk3iBQk5AY0RZIyLCNQyO7fA0DAwCLesDBRjOcLKVhOlAI5hVq53tzJ8CJkFcuwXchA0vDf++rY+pk+frvIIJ+PB8UGvZa7NonMXD7GM0LRIz2RqawSC8aBGRq0vJCREAc+YR/MmIUfYcu7brIeZIEctydlZt3jwO1Su/K8dQply5RAbH4///fgjVq56Gt169FCe5ZyG2bxxk/pOWZ6aHDW7vr17K1m+dJmak2O4cf16fP/tt/jh++8xZ9Zs5ZHJObn33juDJU/p5sq1a1fj+/99q8579+mJufOexNv/OY0VK5apa3BaQjaSFtDdbYzkZZ4dcmYdUdm4LwGbMSxoyLHzElYZicDNOs86PacDwAis7MRzen0zQc7YrWh65L1xeYzMwRFqdKTi2k/mUbP7+uuvlbs4+xXN+AQZt3iixsU8anCswzyunapXr57Ko4bGuTnm0RlryJAh6NChgzJr0rTJHYZ4EI59+/ZVJko+jFmHdVnPCGXjvRdEPLuQS1sfljNNRsYJxwfBwX7J74jm+iPHj6jlN1wiQzM+N0v49PNPcfaD93Dxi8/V0p3Bgx9T5Vln67Zn8e6776Bjx/YqzdExbWs9Xufzzz/DmTP/sZQPjwjFyZMnMGfObJXWqFED7NjxnALb2bPv4uLFCzhwYD8efrixyudUhEDOct+GH6s5HVO21LdDriBGSx5d0wg3iZsdcjIAjKEdcnnUQVLnnGkCpEZGRw8+8DgXNmDAAHTp0kWZJwk6zuEwj/NtTOd8HQFEkHEtKPO4ELl79+5qZyE6prBeXFycyuNcHOfWCD06n9DxhHN0pUuXVun0wCMsaa4kAAk/tknYUbgei/vOmukwC+Q4VgRydLSi13FIeIhaGyoexxUrV1RrT7lulOtQmzRroj7fkiX1TdCHDHkcTz45Cw0a1FPphJyYHvk9pKRMQmhosMrjeefOHREfH4thw4dY0gi04OBxmD17JmJiJyhnMZblfLvMv8u9MrQFTLlZ1g45M42iHN6LgM0Ymh1yBJoRcGowGEyaBTk4cmugceCb0VxJ+PDeCCZ6xol3HE2L3ECBeZyTYzo96fiQp9bFbfL44OC8HddfcU6O3pGsxzz1986dq/Z7ZT1qeoRc//791VZ3rMM2aS6lR6aYK+mwQld3rkPlfCE9OXlIf87h8Mhx9VyHHE3htogBFJyjZv/M6K0c1OT42il+D0bx8ubrcZzh4JC2N2WRohp8fD3g7FIWnp6EpwtKlkzbD9PFtZzKk3b4uh2+todOYpJmDDleAwL8VRnGxVRZkOPYDrkcd33zNCAPA2NoZsix42dFcgs2BdUOHwJmghz7Bw9qcvTQowOI8SCQZE6O8DIenH9LSEhQJkmZk5N8Qo6aG+frCDbjcfnyZQU5OqZYHzRd0tOSe8py+Y44f1mXK+hzM0GOfVlARw9jLqWhBzHTaL7knDSX73DZDc+ZV768t4IYQVexUnn4+XkpsPGcMGNIyDk5lVFgq16jCioE+Kp6rm6OoLZHDa1M2VJq3DJesVIFBTyCjedKw0w1p1qP7YIaf3bIFfTIycXrG+EmcTvkCs5MIoPaTJAzOlbR+5H3xn1WjQedP2bOnKnyZCmNOJdwcwVufcct6whJyWd9mh25KXrNmjXVejjWEUcSApDLFWjC5PwfTaaEKQ+ClOZKbngu5RmaDXa5BjlbtDdjWYsml7YfpLxaJ23eT8+T98rp6foYcPN0AcXJtZzSIAk1CgFGuFEkLePQ1WKGNGpo1jDL7FzGQ36HdsgZR3chjwvYjOH9AjlZQpDdML8HlvF6ZoKc9A12da6T473R/ZyHLLxmGW5Xx70RuX8rD6bxoKMJ925t3ry55dVUKgNQc3LMo+MJF3VLHebT9EjHE67H49wdAUbHEmmzXbt2Cp6EKA+5T5YjLI1tqQIF8J8ZIWcNNzm/G+Rc3BzTQU5AlzHYdBDqeWnmRzvkAgLU4KHN3X7k3ycgDwZjeD9AjgNKF5pDbBcx6xjBk59xs0KOHoycHyO4eBAmorHRhMi1cUZNjWWofdFdnXnU3LhVnhzsd9zWidAkyIztEaDUHLkdFMFl1NJYlvu/EroyDydtminMNchZNDJbrQxpGpzAzLYw9XpG7dDDCLF7xbM2vWDX5MzUa++zezHCTeL3A+Q4aOyQy53OKv2CrRE81JzERGh9BZoVBXqSRzMjTY88CDjrfKYTfixnvBahRphxbo7pxoPnrMM8o5nSCEJj+YKK2yFnhxxkt2a+sZa/Xu2aXP4OR3moGMP7AXLZ0d6MdeyaXFo/lL7BFMbvBRKWMR7G8owbz1lOzhlaX0vasW5T0qW+sQ1jXkHH7xvIWWmSmWleuZ2en9YT47Xsc3IFPXJy8fryUDGGdsh5WLzQjB0/P+NmMlcau5v0E2PaveLWgLrX+b3as85newI567aty+b3uR1ydk3Orsnl96izuh4fCtZyP0COv8SMmpmtcTNocmZ61Q67jbGfWHUjm06tQWR9blNjqYXvN8jda59Ve37aOyjz4rOwa3LZGYUmrWN8cEn8foCcrVCzLm+HXMYdVvpIxrlZS7WGmvV51lpJX0rakDB9bsGdZVeTy4sHt73NrIPRDrmCGzO5fmU+FKylMEIuzZtS96q0nhuQfKPJUUDG0FoIvbt19HvlGa+TnTjNlRlrcrepU6UK4yK53jXsDebCJ2CHXNbBYiYI3218W/8gzuhcfE00ZsqJ3fEkF0ZUNpqwBhzPzQ45AZYRZNw2iLsnUBg35hnjWQXO3Tp5VvKyep3Mytkhl43ObMIqdsjZIWdKyPFB///lKGyQE8AxJLwYEmrG0FiGeRTCxKitccuizADD9KyA7G5l7tZ2VvIyh9z/l555f/yddsjZIWdKyHF4WYOOa3tkJ3brPFuHY07r23q9u5UvLJATqPF9cnwrOF/LIe+W4waw8rJU4+bNhBvLEYY0hQjkuDcfhW8Cl3Rr8NwNYFnJs27P1nM75O7WawtPnh1ydsiZFnLWw4jeW4QcYWcEg7GcpBvTJM76FDMBjvcm92wMzWCuFCiIqVG0M54TcgxLlSqpNoAlyGimFAAKEFnG198XfIUIQ2pvFGvIybXMFBJyZtmgWfqwPbT9EzBCztGR+z1mba5X+mJ256lyWj+7171f6t3th2xGc3DWaTINV2jm5Ag27qrA7YoYGkFn7PaZQcxsYDPesxFuEjcj5KihiemRbxB2ciqnzhkvVryIgh7zCQe+/0qgWNaprP4KkSIaHF0clfbGkK8WyUiTo7YnD4iCDO2QM/bSwhs3Qo5v5bZ+GMq5PBQlFKsD+2B2wFGQffd+uLZ8LxnBTvLuFsr3WCggxwc/tyTi7uncm49bGvF9VgSd9SGbx7IOgUgx25uKre9ZwGYMzQg50c4IMGpyPXp0Q5eundGyZXM0bFg/3csbCQgHhxJKGKfwQeFf0V8Bj+/NEshJnjxUCh5y+l6DvK8nF8zH5SuX1Vd27eY13FaelNbfoP3czJ+AEXKurq4WyxUfgnxIZvQQZZr0R1oe2FdtEdaR+vcDcPLzb5DPjd9NZt/R3eAmeYUKchxA3FX9pZdeUm8dJuwIAWp03BiWO6dz01qBH/fu4znL8S3FTKeZk3v2caNa1jPTYYSbxM0GOWpxMgfHh3+rVi2QlJSAnj17oG/f3hgzZhQaP/QAqlSppM4Jv2rVAhXcWrZpiX4D+2Hs+LHoO6Av6jWoB2p3bKdajaqoXrM6+G4tvj+LZkzCMD8H1b+vZYecmcZHTu/FCDl5cHp58Z1snCt2B8Hn4uJiEZ6rNDd9LovWBloesiIsa22dsLU/y0Pe1nrSjwt7ff4d6m9P/R7k+5CQ35mA7G5hoYEczY88Pv/8c7VL+meffYbjx4+rnc8Z5w7o77zzjtop/eOPP1blCAiCj7uucx/O999/H99//73aSJbQ44azZjoEbMbQjJDjnBtfwEg4UXtLTIxHr96Pol+/Phg6dDCCgjph9OiRiI6ORHhEqAJg06YPY/iI4YiIisC8BfMwa84s9OjVAw0eaKDaad+xPbr37I5SZRzU25I5QLM7uGWQ5zz0hKu7p7q/ufPtmpyZxkp27oXvveOrhNhvCTeKt7e3EoGdPBCNoS2am7GsIXgQrgAAIABJREFUzDuzL8sDm33aLln7DGT8GgFGwBFu/DFy30FOOvWnn36K7du3K6C9+uqrCnSE27vvvquK/PjjjwqChw4dwvnz55XmRgBS+3v77beVRsdfdKdPn7a8f0vaLujQCDeJmxFynG8rXcZBPSyotU2YEKXgNn78WMTETkDvPj3VeWBgZVStWkVpd5GR4ejQuYMyUS5YvADzF81H63at0btvbzRt3hQ9ez+KFq1aqDb5oGAH50OiYEFnh1xBj4ncvD4tOXxhrBFy/v7+qFy5spIqVaogMDDwX1KlWhVkRwKrB0KElgq72P4Z8POrVq2akqpVq4JC6N3XkLtw4YLS1mhupImSAOO7sQgDHpyze/HFF5XmRm2NB+FGIFILpOnyrbfeUnGaLs10CNiModkgRy9JQq5M2VLqYVG3bm30798XderUUnNxhNzkycl4/PFBlrm5uLgYlVa3fh1VZ8r0KZg8dbKalxswqD+CunbGY0MeU2Ygmis9fTxVXH79yi+6/A/TzJV2Tc5MIyV798LnRUJCArp27WqbdO+KrnYpsM+gR48eMAq1bicnJwU7atxGTS+juGjlhcLxhF370qVL6sWN3377LUQjO3XqlIIdzZSEGLU4goxx/nrbtWuXyicYqfHt3btXmS1lqIgpVM4LKjTCTeJmhZyYK2vXromoqAhlnqTpMnlSIuLjYxEaGoyBg/qja7cgUMMbNnwIBj0+SGlvq9asAkHHX9Q0UcYlxqFTl07qXEw7nKsTs07+w01ehmmHXEGNhby47i+//ILk5OQsA6579+6g5BRw3R7thrsJ2zfmG8+N15Yyki95xnTJkzSGUs6YZ50m58byxjYKMm4EHOM0McsSkPsScjRHnjhxQkGMIKOXJefWZF5OwEavS0Lv7NmzSpMjFAkzztFxfo4vnJTDDjl5qN89pBYnmhyXDRBSNEeGhYVg4sRo0CRJ55PKlSsqwNGMSQC2adNKeWFSa6PTSUxcjAVqbdu3QdKkRDRq3Ei1Ry1OTJQSmgFyc+bNxe9//q66zI1b15V3JX16xa9XfpRIKH3LHprnE+CLXVNSUhTkBGDG0FrDkzwjHPLiYW/dvgDHOt362pLPH4rMsz7PrLx1upyzvnVbkleQYUaQK1eOy5a4Jtfr/tLk+AAhkGhmJKQoTONBj0maKukxyTJSTvJZhksIPvroIyUy9KRNhiKSl9+hXN8YmlGTkyUE3N2EsKPQ47J8eV9louRaOZahg0pAgD9YjkAkrOg5yTiFTiach+PAomcl02Q+jmXNBLnZc+eYEnLsK5kdxjxj3Fg+s3RjGYnbUlbqmCkk5KZMmZIp5JTWZjBl5gfk2PcFLtaAkXQjYKSM1JMycs6yUsZYj3GWtU4zlu/SLUg5g92tbEb18zpNICffj4+PD8qUKXO/QU52d2cou77bEupDjQDksgLCkAcHrbUU5KC0vheemwFyosFJKJCT86yGXH5A4W4oAkYuNagUWEntgkJTJZ1NCk5zy1iTJXxnPjkTv/3xm+oeN2/fxC3cwg3cwk2l091W50wz/rtz5xYoeXWwfxgP/rCzTrPOZxk5rOPGcykj7cn8tZxLvjG8W56xXEHFL1/+E9OmzUCXLl2UGVIent169ACFEKC0atvqrkAgRGyTR9G9p1H0+gKHrt27q+un3Ud3dOnWVYkxj2306NVTlWXIMsyn0xY9lQkptslz4/0xrU//PmruW9K5lIdOX8xjXYacMujVp6da5sO2pGz6e0/fdloZWz+TrJd/9NFHQeH31alTJxByDg4OFg9ZmXOT0HpeTtJNPieXc8hxAHIQU+Oj8GCatRTUAMzsfswIuaxCLaNyRkAyTg2Q64mo4XEezmyA4/0QctNnTsevv/+qmylv62jj//kBOWt4WJ/ndp+V9iXMavu2ls9qu7lVjpCbPn2mgpwAjiEf4kbI8cFt1Hpy/iA3Ai4NEgSLDlYdcgSWgCuoaxd06hKkICaQIdh69u6VCrZeYBmWJ5gINjpwsT2eG+9ZANYxqKNKJ9RYjucMWZchl/EQfAQc22IbLCvXTwuzDijjfWQ33rNnT1D4XbVr1w5+fn4oUaLE/Qw5I/CyEk//a5cDRgajhLk1iHLaDu/HWu43yFmDjxodF9fSq5Kw4yJws4GOkJs2Yyp++e1nUIujWO94Yv29Gc9zo18Y2+AOP3Si4MYInGumZYKmOJ5//fXXaqMDpnFNKOewadZneTpqMZ/WDJZnXeZz/prhF198odoSjY7aGz0Sub7s8uXLqhzrsV16KnMuXLycuaMQy9BawmkBacN43wUd/+OPKwpyQUFBSjMQDUEe3gKdzt2DENRDN+1ZP5j50LddeioNjJDSRW+DbdMZi9cXzYxgI8gIXcaZ/tjgwRawPTFypDp/fMgQDB8xAsOeGI6Bjw3AiNEj1DpUxik6nHRIUWsbPGwwhgx/HCPHPIEBg/qiV58e6DugN4Y9MRgDH+un0nj+2JCB6N2vJwYPe0y1oWuJ+n3L52T9meT1uUCO5koj5OiAktH6xvtAk8sK2Ixl/g25gh5smV3f+GCU+P0IOS4/ENipNxa4uyrQEXLiXWkm0Ankfvr1J1NAjlBas2YN5s6diw0bNmD37t3YvHmzSqPn8LFjx7BixQqsWrVKbYTAdaQ8X7x4MbZs2aK8jZctW4ann34aBw4cUPVnz54Npp05c0ZBin2U1+HynOnTp2PmzJmqvWeeeQZz5sxRwk0WuMHCvn371LIdLuc5cuSIAqZsq5dZXy+IdEJu5ozZIOTkwak0hF7UfB5VJjtqNBlBznawGWEocNNDHRy6iZBOWDv37AYdmxKSk7D1uW3Y+9KLWLB4EZInT8ZzO3Zg2coVSmvr068fnuL3tnoVkiYlY+36dSo+ZtxoLF2xFK8cegUbNm3A+NDxFsjxWrzG5q2bsWP3c1i/cS1Cwsdj+dNL8frRQ1izbpU6T5k2CUtXLEFswkTMnf8kps1IURqeriX2UuC1hnRWP5OcQJDXkO/KGnI0W4op0hjaIVcQoyuL1xSwGcP7EXIEHOfmaK5U83SGjW/NBDe5F4HcDz//oM/F3bqOO2puOP0Xa/zejPH0pXJ+Rk/ikJAQBR16Cm/duhXh4eHYtm2b8iYmyJhPIBFwXGIzdOhQ7NmzR0Fo4cKFGDJkiIIdvY0JsdGjR2PHjh1KQxNzPrUybqhAaI4aNUpBderUqWqtGcsSiFyLOnLkSJXPhdbr1q1TGh7bkM8g539x7rRQcJAzAq+HggfhQ7NgdEw03nnvHbz8yssKRKfePoWjJ44qoYn8yPEjKo+mRJb9z5n/KOGGCgTXwdcOYvUzq3Ho9Vfxxptv4MTJE3hq2VNq2zzOsfEa4ZHhWLhkIfa+tFeVWbNuDc6cPYPXj7yON996E0+vXol1G55RkNy+azv27d+HlGkpyoTJ7ffS4JYe1nbI5U6/TG3FqJllJ56rN5NnjclDwRjer5ATTc4OuXt3J/YH40GzZHR0tNLOCLH9+/dj7Nixaicgmhy5LpSQo5ZHsyI3UBgxYoTS2rgxwpIlSzBs2DC1XpTmS2qEMTExasMEmiatD16PcKPWR41wwoQJSiskVGkC5fVnzZqldhOhdieAs26noM/NBjkunyEoCJbjbxxTEFq2chmome0/sF9tf7d2/Vrs3LNTrSVl/MCrB/Da4dfUOlPuGkS4MX/H7h1qyzwCi3GaLDnnRocTwo7mzJWrVihNj9oeATdk+BB1/uy2ZxE1MQrLn16u2t7zwh6ERYQqyNGcSvNpxqBLD+/MoGfX5Aq655vo+ka4SdwOuYw9HkXLyo+woDU5a8hx03FqVtS+aE7klnXU1LjQmVoXNbaBAwcqjYtrSQmpxx9/XIGKAFy+fLmC3LRp09Qa0kWLFqn8pUuXqvWmvJ7xzR7cLWjy5Mkq7/Dhw8o0SvMlQUqAcm5u06ZNqgzzaeY01jfLEDMT5GgG5LZ2BMDu53cpzY2w4kYJ3N+VECLEeE7NipoWwUeN7/zH50FtbPFTi1QeIUUwJSQnYP3Gddi2fZuCJyHK9qkFcoch1qeGRs2PGl9wWLAqy7ZYjmWoOVLj47VHjR2lz8ulOn6I2dA6zAxukm6HnFlGgAnuQ8BmDO93yCnTJc2XJpaChpx11yRYaBok6Ag4bmNHqFHb4rwYIUdzJOfZuMMP93sdNGgQFixYoLSu9evXK82Oc3Q0NxJy/fv3V3N63FHIeBBW3HyBi6i5uQIhxvJsm5sd03mFwvm8xMREtdsQz2nqNNthNsgRQnQKoXZGU+OmLZtw+NhhBSDCLCQ8BM/ve15pV7PnzsbGZzeqcjSbP7fzOQVAanLU0AhCaoOE15KlS5Q2+MSoJ5Q2R9hQSyPk6IDC3YZ4HcJQwEeNje0QcBQCNzY+Fu06tLPMiVnDTc4FZpmFdsiZbSQU4P0Y4SZxO+QKHoC5B7nsmNpZJ/1ByE2cOFFBiXGaC2mO5Mbl1NroCELzJefN6PHIt3VERUUpcyQBRI2NJkfO7dF7ko4kNFdyjo3ljQe9MjnPRk2NW+TJZufcOi8uLk69yoptsg22SQCyHWpz9LBkPzbLYQ25Xr166a7pd3E8ocdlTh7SrGv98Od8HDU5blhOl32+lYNaGTU4am7U7LgLEPdz5fpM5hFCnB+jtsYydCYhrBgfOWakeqsHwURQMY9v+ZiUMkmZHIc9MVSBj3XpWENTJh1VaNakxsZ2CUSCND4pXoUEJdM4pycwyzykc0iaWP+9Ofn82JZc9z53PDHLMMnb+xCwGUM75OyQs+51NFdyXo1b2FHTOnjwIJKSkpRGxbIEEOfIqHnxoAfkypUr1YuD2bfokML5Oh5cJkCI7dy507KTELfC49weDzqe8FqEG8uyP1IjpHAuj1CldkdwMo0OMDRvEpYsbyazZWaQU56VhsXgRu/KvICcQEDaFpd/zqEROPqyAn2tHoFIEHJujbsD0fTI8oQV01lW6hFmrM98zqkRfixHyBCqso6OaWyPc3Jsg3N2FJbj9bj9HjU+5rEsl1oIaDIO0wBH2MnfJ6Edcmoo2f/jJ2CEm8TtkLsfIJdNDe72LYCS2jeoGVG4No0Ao5ZFJw86i9ABRQ6uYxNtimmcM6PJksDhejbGaZakSZEg4lZ3hBrd/umIQmjKGzyovUke2+I6ObbN6xFwrMOQ6+yo0TFP7ot92EyHQK5z586WBzcf4HkNuYzBoC9wVtfv3l3dDzVL7p/J+2NIzYW7s3ARNOdU+/bta1nfxzwK81hP2mGaaKhMo7At7hTCdnkvzOcyCgrryzXlurymXJ/50s7d/g49Lz3sRLuzQ85Mo6CA70XAZgztkPt/DDkIHLPWMWUBNvtPRhqU9TyZlJfWWYcA5WJxmhutj3tB61751u3l97lAjg98eXgzTNtOi1tpBaVbJyfaVk4e1PeCQ+/evS1gIsgoBBHTGZd8gQ3PjSLgkjTWFdDJtaUd/r1Mk+swTjBK28wXkTSWMcalzX+Hdsjld58udNczwk3idsiZC3Lc6eQm55oy6F1UXDKStKICrayGaTWNMcLIuNiasKJGJ+ZBnkv/YcjykiftMF0OY1zSjKExX9ozpklZa2hKulnCu0GOW2rRNEfJTXOlcU5J4GPGUABpDOU+/w0zXQvNPD097HLyA4F1ra8j23rdZ4vBzTJM8vY++OCwFjvkCg/k7t07sgo3vZx1XyBEKIQWxQgz62uzLvMJNwKQ5ZlmPKQ963RjGeu4tGtMlzTjfUnbDM1yCOQ6dOhgMcfRLCebIVOLM2pyAj1qc9kRebhbP6R5LgBhmFF+fqcZ7yfHcTrWGETm5rIbWt+PHXJmGVHZuA8+LKzFDrmChFzaS1NTps8Ct/USTS6jR7dRi0v39ZMtii+2Qi5dK7l6ImDKzUbZJg9jHybkJD03r5WdtgRybdq0UfNTnJPiPFTHIJGOyomDjhzijMGQDhvZEdZlW+oaHTuCcDUK92E0nnfs2BEFJbwXStu2bZXIvfF+ZD5P5vFsDfkZ5ESsr/d/7Z0HmFXF+f8xiQYpu8vushRBExXF2EisMSaaX/6Wn0ZNsOSnJpKYqAhIkWJFulSlI6AQBKUoSgdFmtJ7k96WurTt926jfP/Pd+6+d2cP59699+4tZ5fZfd5n6pkzd87MfM47Z4qBXCi13yHX6J2D2A3knAG5d7v19J5CcJZakk2dCTfk5BYl6ZZ+CWK41BPaqUlRc+NQJkWGMOmnx2Ncbtqsh9POa/jdjpNT+G2O3+Vo0s0wpiMi8eUaXsc0rWKnQcrvirYpkOOaQu740qxZM2X+vdkL8Mjf1YxDzjrUhbMWQ5Fm/2qmNk3mekYu6Xj11VfRvHlzr9BPd3NxfbSFeaIwLy+99JLaYICbDFCYbwq3baNwmUooEkrZ6ddY7ymQ4wbN+p6VYq+ge1dGuznE5n7SEemmEyDna6G2bM0VadPX/SPvX6LJvdW1m4KcOi+uGHK6XkbwWUWeY3lqE9PgN0CKaEWSrm6WdQ/G1f+YFkElQ4y+TMaT+8r11rTE32qyfIrOOkeT48xQ7uPJJRaBCvcG5abTFC6VoDuQaxmPwmtExE+u51KLsoTXLF68WK115HrHYIS73/BaPe+SBzElbzQlnu5Hu8SNlWnNz1133eU5YDk52fa4HQM5a0t0kFvvtMRuIOcQTa5HD3XUDiGngAN45z6yM7cCjm55huWtYpK2pCcm06U9lD+Ci1qZL7jRXwecfh/d7u/ennLxFyO6YYQ6F79zP89QhAvvKVyCwYX0NK0i/jQlvtVkWKDCa7kukks+ghVeR5Hfas2H+Es8X6bEi5VpzZdALikpyUAuuk2o/HeTzks3DeScAbkuPbrH7Dy5UGpWWSBiuGiIUt8IU/pdCFXPrNFQ8uGkazi0yuUR1s7el1uAxTWJFK4n5OL4YIVrDilynbidYPI3lSWxzKeeNz4DvlQYyFlaVVmN3RI9pk7pbHTzYoEcj93RTw3Xh0AjPyzpC6Qlw5WEXKzOkwu2Ukr9Kes6wozalvzRrov4VxaTkOOidYFWqKZVe/PltqYv8XQtzhdgxV+PK9cHa+pp2NnLSs/6O6LttubvooacXeOmX0X5k/zrZkWHHI/SIbB8AUzCrJDzF18HIO2RhmD49q6MTk2U+iN3890GPEjj2Xjyz9mjYmfLEdFhKOlWNJOQ424w5emkrR2uP3d57qNf6+8e0QjT8xILu/U3VkrISaPVGyvt/Gag/0k8+sn3BJq6P8MkHTH1NGJpl3zqplMgZ3titwawlJRk1K6dpGBGU6ROndql/OmmEGK8Rr9OwGYFnhVqVreBXOlaK/WntK+dywM5gk3/r8yQ4xZo5emorR2uP3d57qNf6+8egYTpadnZy0rD7ppo+lnzVykhJ6CiKR/L7ZqsFVoCOomrhzMd+WM8J/xJ56SbToBcQmK80paSUjh8VwsCPMKKkIqPr4mqVS9DXFwNZa9Zs7oyq1WviksuqaLshB796cd4NWpUU3ZeS2gJ2KymFWj+3JGCndM0OakfUr/FzckitNOfpuePJus3zbM4f571/oxFPLA7w91ccA7cLZMiV3rbBj18yTlu9yIxvRbxcIRJTY77a4bSQVs72mDcodyP1wRzj7Li+stDea71l264wqz5q7SQ45odnkLMsWpWVK7H4Z80cNrZyGWdDtftsFJzRpUONGltjCvXi13CYmXKb9HNWENOgEaAJNdJRp16KWh8Y2Pc0uQW3HzLjbjqFw0VpAgvAksgRfgRgvSrWy9FaXO0c/iSJiEnUKSfaIE68PwBzS7sYoKcrzrKumOtz+fOcaYkpRBnzuZ7Tdo90LN/ySOq+N3OWx+5HKBYznH2JaF69hxw7rzXpL3kyx7tzgFerCBn7aTLcgcDOH5jY3ryrU3SFreY4u/PlLSsccIFq1DTsean0kKOBcSjRfiDues5QcfZSlu3blUzpjjNlA+Jbq5D4WGR3FGdwqmvnCEkcZgG47LSswHzT0xfnUc0/L2didaxOAFy1OAIO2p0BNw99/4WTW5rgltvvRmNG1+HG2+8AXfffSduu+3XuP2O3yj7XXfdgfvv/wMee+xR5XfllQ3w61/fivvu+70yGfeee+7GDTdc74WgHbiC8XM+5DwaUwkEAnV76qeuuYndWi/pT8iJqUY+Ct04W5SHc2fdOH8u3ytQWh11tnM4c7YQXB4h3+QkXQ5d8i8/313sRfc5FBTkITs7E5mZ6cr//HlqiWcVTJ3QloozW8pwOuR0CEgfJZCyA5CdnxUIgbrlPoHGj2W8Sgk5NloWKoHFPy7q5JoRnlg8b948dTIywcYjQVauXKn8CDRWGi6IJPgISB4uyQWPPC+LiyqZjpP+nAg5gkO0udp1aysN7rrG1yGuVpzSvq655pcKYg8//CD+2vQJPPTQA/j973+H//nT/QpyDz74/xT0mjS5BX/4w73KTvOZZ54Cw+hPSFIDpIZHjS4YsOlxKzPkrPWUdXrmzJlqMbHUZ54SzrPjKFy4O3XqVLX4+diRVHw7bxYWLZyHlcsXY/26Ffju21mY/81sbNm0Djt2bsOiRQuw+IfFOHDwADKyM9TtCLyjaUewYsUyTJv2lYqXnnEKq1atwMRJn+HLL6dgy5ZNOJ1+EitXLsfBgwdwIHWfevnk8T5O+6sokOO0efZ3BA9HrmR9mqwXEzfDGZdx2NfxGobRXwcm49Cf1+uzNiVtARbdYneyWWkhJw80PT3dCzOCiudXffnllwp4co4WD3gkBKWx84HRznOy2CHwjCyadseJxLJhOhFy1N4oNeJrqO9x199wPW665UY0uv5apcVRm6PWRsg9/fSTCly//e1d+OMf7/NqdoQawfe7e3+rtDia3MD1ppt+hUaNrlHXc2iTw5eVE3KBamz28ayaEes2D0Xt3r07xo8frw4r5XZQH330kXp5mzBhgjq1e/jw4eqFb96c2ejYvh1GDx+Gr6dMxrCBH6J9m9YY9/FoLJg3F/369EGrV1tg5IgRWL1yJfJcLm8zWLdmrboPD0QdMmQQZsyYhvff74kOHV/HoMEfYvnypQqCL7/yH4wcNQKjebL11C9w6FCqo4Yq+YMqEuQIKfZ5BBNHrdhnibCfo/Cln3WBk2kYhyb9aYrwEw/jMZxrBLmEQk+H8ZgG+8hKDzmuHpftUBo2bKi2TaF2ZNfxRtuPQy8ZGRlKI+MwJIceaRJwfDjc9mXGjBlKW9PfVuTBcViTcQk2Pmy+ZfLhs9Iz7Wj/Hl/3Y16sQmDfcccd6nkkJibCThISExApia8VB0rNhJqoVrMaGl7VAL+5/ddquPI2mk1u8Q5D/u8jD+GBB/6Ee++9R2lsN938KzDOPb+7Ww1t0s4wQvA3v2mChg2vQIMG9dHoumuU9kbIJfK31IpTJu3BSKTKgBNPunbvgrSTaThz/gwKzxTg3PkL64312YlbhvJCNz2TSZge6w7reNeuXTF69Gjs3LlTgY57DVKTY6fFU7655yBhR41v29bN6PB6W0yeMB5bN67HqGFD0fnNN7B2xXIc2L0LI4YOw+tt2mLxgoXITM/AuTMcevR8i1uzahVGjRqF6dOn46ORw5XG17t3L7z11hsYP34ctu/4EXv27MLAQR+gW/cuePXVVxT48vJcOG9TRpJuLEx+p2e71xcYB2pnOUdarHlh/0XQEUwcdWK/RZOnrtPk4bRpaWlK6Mdw9pN8eWc47fQn3NjvSRjjURhGP4bxXpH+feFK/8477/T2h3b7VZJlugjXqjgZcmwQbOCcRKJPKKGdYfKQOOlEJpowTCahuN1u9VC52ayEnz3L7wcl+/LFotFZ7yn50c1YQq5Wci1Q+E0upW5tNWzJocu6V9RFnXp1UE8Twur66xupb2xXX/0L1K9f17tMoE7d2sVDkFxaUBsNGjTwwjohIQG6CMTpJ/bymqHDj98hE1WDEsidPX8WRaw72ndTeY7nzrGeXigSHirkWB9K0jiv3sy5me7bb7+this5bPnss8+Cmhtf/ubOnatOkh4yaCB279yBgwf24y+P/xl9evbC0kWLMWrYcDz39DOY+Ol47Nz6I0Z9NApN/9IUo0d+jH2793nvRditXb1GAeyLLyaj45sdMffbuRg3YRwGDh6Inr17KslxZWN/6n682+VdvN6hHWbPnY30rHRvOnreY2l3OuQEAoSd2AkfgkyHG+0CMUKbLz2MQ2ARfDRTU1NVPdEhJulIHJoEHbc6oxYn93S6WWkhx8ahd/5ipz8rL99exE9Mgoxi17AYx84/ln6Sb910AuQIOsKNoKNdoEEti9/ERNsSDSw+oaZaLsAlAyIev5q4/PLLERcXh5o1ayI+njMt4xXk5M2rvECzu17yG7wZHOTKrjueyRnBw06b4Xj+vJp41apVK6WpcahpwYIFajd9Dt/zhY7Q4+72C+Z/gzxXLnZu/xHt27XBqmXLcezgIQwbOBivt26DHzduRtqhw+jfdwC6d+mODWs34NiRYyjMK0SBuwB5Ljc2rF2Hjz8ehcOHDyqADR0xFF/P+BpLfliszE5vdcKxE8ewdftWtO/YHh06dVCw+37p97babtllVPq3hjO+Djl25FbNyZ87mh2/FXIyxEhIUSsjnESouXM4kkOQtNNkGCfnEYCEHE1CjGEEGuMRktTmqAjQ5Dc7jpBVBI2uUkPOX4UPFlrBxvd373CF6XATeywhp0OBQ5YEHUX8BXKcNCKLugV6+oQQGS6gSU1Od4vdDk7h8pP8BmvGJSaDwuHKd3v0wvFTx0FN7gy1Nasmx2n0vsQat5xudlYcqtyyZYt6UVu1apX6LscOjHWR0Bs7diyOHEpVbgFbzqkMlccvPp+CyRMmel7yzp3H6OEjMfHTz5Q782Q65kyfhQPFGt3h1IPo2LGjOnqFmtqylcswfdZ0NG/ZHC++9CJmzp6hJqrQHP/5eIz6ZBQGDxuMTVs2qbK0DzpuAAAgAElEQVQKV9sIRzpWyAUDumhCznovPm9CS77PEXoEGYFHYFHoxzgU1gOG6doeR7voRw2PcQg/wo3KAf0JQULOem8nugVyfDGuVMOV4ajkTk9DwKabToGcDF1aNTkBHU3CTrS60qb9t8RwQaysdIKFm8TXIffGe91wKt0DEVvIEVxRghxHJ9ghsZNinWZnxm83XC5ANztFvr0X5rs9IDtzFkdSD+L82fM4l1cEgiz9+ClP2PnzOLQvFSeOpCn3uYIzIASPHTziCT97TnWirIe79+1WfrnuXKQeTsW+A3sV+DNzMtXwJGdl0n7k2GEFPrvvlrFsg4QctR5qSqKx+NPe9LBYdvbU1vl8mQfCiKAitCgym5JxaOfvkjgyMYXX0o9wYziFwJQZlzSZtlN+r6+yZp3ni50OOXlJ1k0ZFRJTwmy/yfGsI73DNfYLJ4aEs0xkeFU3ly5dGtOJJ9Lh0xTQiV9pkPmbJFIxISe/k5pc6ze74nTmadUeeEbaWZtJQufOnoOt2MWNhp9dfs6cLcmj5MESz53rQmE+F41Htr5HO31Cjh29DMvp0+ydbGenr+dPQCbaFyfWSRz+NolLf7oZJqaE0ZRwuUbgoscpbWfaduI5paF03PD4SZ74m5lfngcoSwgEXjQ9QKtlu/xI4hnIOaBB63ATu5MgJ52+mBcT5Fp16uKFnDqOxq6+WGDhBZ5d3Gj42eUnAMipfDNesUhdpOkLTBLHV7gT/K2QEzBEonOOZJrMt2hkAgGahBWFYfLbJK64mS+rH90i/vNtB7gSqPq/NjToSb74mzhTmOueDeSi0XlE6B7SUeimkyEnsKusZlxSIijU5Np1fAOnMzKUBucTclIvrHARfweY/kBlByLG54xkEb1u6na7cLv0YulHyHGojyCQ4b9IdMyRTlMgxY6fv0OAx/vytzGcdgGENT+MI35i9xVX4nnM2EGOv1Mgd/fdd6s2ye9xMiRpNDkHdC6BNG690xC7gVzk1gCWBWcdcm07dMSp9PQKD7lA6mFljcN1sZUNcgInmgSWPnQpgGKY2MW0+tGtw1LilTZjCzl+j+MuVwZyFQRodh2JgE03DeRiBzmBIDW5Nq+3w/FTJw3kKnD7oibHHUGkM5eOnmCglsBONFzC9Cjqu9f2rdi2fauP71m+wOHff9cubuNFbY1r6jzCe/z44xab+3g0PELQKip/xf4CNGscuj1h/vNk/70u9Gv4u/gbqcVxcgzzSsjdc889Fk3O/luczPD2+02O22DpHa6xe9bdRaocuEenVfhQY7njiXT0F7OpJp60a4u0kyfUQnAuBj9TvAbTti6cOYuzuviLa8Ki1scQcrKGjBNQqNVRODNRZieyMw2HSJrcT/fAgX1ITd0fVuE+oUyTpojdPdR+ogcOqNmV/F2crELR7eKW322NQ39PWYX3N9jlV/eT38VZorw/y5Kgu++++wzkbDueCtCZWAFHt4GcMzS51hUackU4ezaWEtmXw0DaO9sSIedyucD9b3WRhdXhNkvucQoZGdyJJHZy+vRJhCrp6bHLP0+54Jo+liWfD2H3wAMPKMilpKT4nVVpNDkHQs9ALvZAs9NYK74mF0vA8d7OghzXF4rIno/ijoiZk4lsh0hWVkbIecnNzQ752lB/P+/J7Ri5kw9hR63yscceU5CrU6eO2lhCYObLNMOVDmiA0gkYyBnISV0Ir2kgp2tyAjICLtKi7uUAwOmA0u2BwscDGwIneAn0HnbxPPfLVc+Jmx5wKLVp06YKcvXq1TOQC29HEfm3UQM5A7nI1FkDuVhBTmmKxZALBRBOu8YORBH3Kz4xgZCjJvfUU08pyNWvXz88kLPreI3fhRNEwlEm3JbJKtx010w8iS38ZLjy2InjKDzDo3bOoMhmkpC3DhSdwRld/MWNSlghzpyJpUSmvXjLO4AyZLviZsQc+hLtjZ1mNCQrOwP+JCcnC5EU3pvpSx5CuZdcGwtTf0bcjuzpp59WkLviiivU3pW+hinFv8zhymAqkolbvsZsBRzdBnKxBRy/0RnIlReQ5WsX4ehXnAw5goMTLHQRmFiBRH8BljXMlzuUa6xpSX5CMfXfFayd9zOQC+AtLhyNJBppGMjFHmj+Jp5UXE0u9pCJRvvxd4+KBjnCQIBiBQ7dLleOEgljXBnaFDvDPJDgbFKeSuABqTVduhlXrtfTlLhiShp6/iTMl6lfE6ydaRrIGch5j76x66CNX/nBWfE1OQO5igQ5LjUglAgbwoym280Zhh4hjHS7xONp7IQIrxE706If3YxHN68Xtwci6V7AMYzxKDq07OCkh/uz210bqJ8nfyXDyhfNcKV8F8nn2hcFOetwSj7OnMlX37f4dld4Jl+JxJfr/b35xSLMaHLlB1IkoF5uyOnf50KxV6IXuVi0K96TbUvWyfEMNYp8m/Nl6hpE+eylhyL9dfCylo6d+6lTJ9TuJZs2bVC7muzesxObN2/EuvVrQL/9+/fiyJFD2LBhndd96HCqisvdR+Q+tMsia8IzLe2oinP8xDF1D8bTIRUo5CT9SJoqX1lZXm2Oi+ytE0+4Ubx8f7Mz/X6Tmzdv3gUTIew64mj7FRQVgZJXLEVFBSgtBFye2lSWeSsoykN+kdsbX66Pdr7Lup9scqub/CZ3++23q+9Cvs5Ni0THbtIsAS4h91rbNjh6PE3VO9afwqILJwl5n29hEYrCKf7uZcIC6qPYpmTiiSwhKAtcXJcVHil7ETjhQ5EF27QvWrwA3bp1weDBAzHli0kYM+ZjvP32m+jVqwc+Hf9frFq1Qvl3794V4yeMw7xv5ig3wz/6aIQC5Jo1q8Dw/v37YuLEz7Bw4XcYMWI43n33bXz55RR14ntmFhdcnwZNkezsTK9dwgXAkldxR9Lkvfm8+Kz4LAi5J598UvWHsoSgckDO2mEUN2yBXF5RHigEWWGRR4NTHU5hEQoL2Bl5IFhQVID8onxvR+XtlBzSUehwE3tFgZznrLl41EqOR0JSHOJr1UDNhJpeITTlPDr94NWKANNyQy7M9Ys7PyxcuFAJ9xTkHoyzZ89Wk5R48CX9GM59T7nvH+MzfOXKlWrfxk2bNmHRokXYsGGDirt27VrMmTNH+fGUab1dbN68Gd99953aeWfNmjUqLYbLPoe0UyviAZ7cF5I7U3CaN+uvnk4s7fJS687PQ3ZuLjLZaWZnIyMrU4l07P7MSHbkTFsAR+3q5MnjSgihp595UgFr1qwZ6Nu3N/75zxfwfu+eClBr163Ge++9iw4dXse3387DnDmz0Lz5y+jUqYPy/+67bzFu3Fg0a/YPBbbZs2fis8/Go2fP7ioNXkctT4Yx9d+ol4Xuz3zq7kja9TzQzntTe33yyb8WQ66O0uASasV5D2vWNTke4uyRZLXUwPY8Ocdocj4g5y4qBIWAcxe54c7P8YCusAgF+R7JyytCQUEeioo8ja6wqBD5hYUKdLFseHb3FrDpZkWAHKEVXysONROqo0Z8NWUSckkpSUisnajgxnCKwK4iwE3y6DTIcQ+/fv36KRk9ejQmT56MNm3aoGfPngpmU6dORceOHdGrVy98+umnCoL//ve/MWjQIEycOBEjR47Eyy+/rEy28eHDh4PhAwYMAIGn103u8diiRQuV9vjx47Fq1SrwMOVnn31WCe2EJe/NtJmfcePGed+89bRiZdchl+N2ORpyBBxBR5k69Qv83/89g+EjhmLBgvnKfOWVlxSwRn88EkuXfo8uXTvj1VdfASHI+AQatb933nkLX331pZKnnmqqQLl8xVK1gfP33y9G27atlXZHzTEv3+UFlw4xgUwkQVZW2pIHmswrIde06V8U5OrU5VE7tVApISfDRemFLvyYugdL9q7FmrRt+OHEVqxzH8DmopNYkbkP24pO4tv967Hw6CasdaVin/sEjhXlILeoSIm30QlEw/zG7U0/wHR1uIndyZATjSw+JRHJDeoi7pfJqPmLJFSJr4IqVaugyqVVUOVnVXDplTVR9RcJqHplPC5rUAPVUqorocZHkcNXxe3TTCwZQhQARcN0GuSoRbVt21ZBhcBbtmwZWrdujblz56pNbGfOnInmzZtj0qRJaqhn48aNCnrz588HNb3BgwejW7du6jpqbmPGjFFA5D6p/LDPtWRSd6nJEZZMi9ohd+nv0aMHPv/8cyW08yDLTp06qTwQlswPr+fwkp6WpBltky+1FF2TEy2Opt6R2tnL6ojDGc7vcAQc06Qm9/gTf1baGE8X4NDjzJnTQY2sdetWaviyfft2aPd6GzUMSX9qZ//97xgMGz4E/fr1wdixn+Dv/3gOQ4YMwrJlP2DL1k0QDbBz53cU9Ow0uXD+pvKkpT8Plg03u75oIMeGcjw3E4vXrMDEZTMxd8v3mLzpOyX9Zn+KXtPGKMB9sXExRi+dhnGrZmPJjrU4VJQBF4dYijU71eAM5IKeoSlDj4RMrbrJaHRTY1z325tx9e2NUfvmhkrq/+Zq1G3yC9S59So0vL0Rrrq9ERIb1/VCToY2DeT8fN+zeUHi8GCrVq3QuXNnTJkyBV9++SWef/55pdkROF9//TX+/Oc/o3v37mrIcv369fjrX/+KPn36qLCBAwfiueeeU3Djru5Dhw5VO7vT5FAj2wRfsmjyGwgBRjDyesobb7zhHa6knZvmCvyoYRKc/P6l2pZN/qPtT8DlFRSAWlxWTo53mFJAp3ekdvbydNLBXEstSoYqafIb2ksv/Qe7du8Av5FRAyO8Jk36XMFs8uSJyqSb+d67d7f6fkctj9ofNbqhQwerYU5CMu34UaXZEX4jR45QcOQEFuZRfncw+Y10XMkTfztBzPIJO+T4ZigaRUzNgkIU6lJ8UnFa9nGs2rwa47Z+izGb5qDP5kl4Y8kI9N44EYN3TEe/NZMxcONX6Dh3ENrO7I85+9ZgV2EGsgoLkVlYUPLbJG3tBORY/F4e6mgVdlpOnHiiQ67KT6rg2l81wu2P/w5NHr0b1zxyM259+h5c/5dfo+4fr0G9/7kWVz9yI6555EbUvD0FP6t/GarU+Yn3+11SYhwoicXiVE3uSNoxpRGo4W5/dUXqk5j+4oYQxv37CJcPP/wQ1LQINUKLw4T8Pkc3hyM5fMjvcStWrFBQ/Oqrr9R5YoQZhzf5jY7HmPTv31+F89vbiRMnStpFYSFOnjypIMohSQ5bvvnmm0pmzJgBCt1paWngdz5ClfAdMmSIuid3/CckY9GW9HsScO78fGS7PN/j0jMzoEtG5mn4E3au0RKB3NGjh9UQJTW3w4cPKsht3/4jJk2aiIEDP8A338zF1q2bMXfebCxb/gPy890qj0uWLMKAD/op2K1cuRwUfqs7cSJNgYJxR436CCNGDMOMGdPUEGAuN17WQBKt31rWfeSZqE2lszMjM1zpdMgdzzmJFZtWYeS6GUp6b5qId5aNxpgjC5T0WTURA9ZOQcuvensht73wpAKcgVz5hv4IOX5voyZX5adVcN1N1+Oupvcp0N3Y9A7c9uzv0fDBxrjiT41ww5O34eZn7saNTW9Dwp11cVnDqqiScokaqiTQDOQKgwIBhyv5DYxD2RwOJLzat2+vJpVwt3a2WwKHh3ays+cwpGhY1AKpyVEzYxiHFEeMGKG0OtoZzu9yBCnDqdm999576voOHTpgwYIFCp7NmjUDhSDlZBPek3Bjvl588UUVj/6cGccXNx060bZXJMjxu5N0/rRLR08/2gmrY2lHVBwO3xGGBCM1HYKKfoQilxbwGoGmDgpqdJIO4zNdCZd7O8GU3868USLyTc6xkCvIV43mRPZxrP9xHcbtWIQxP36HEdtmY9jWGZh7cgPmnFiPzzfOxcRN3+C/G+bikzWzMH/nWuwtTDeaXBi+bQnkOJnkkssuwXU3XofbHrwXN//xTlz3wK1Kku68EnV+dzWufvgmXPXADbjq/usQ3yQF1RtUx2V1f+6FW+1acaAYTS4w2HFdFyeAUIMiMHjSNTV+Ao9uDh9SS6MWRzeHDzkzknZqV9TsqAHSzbVjHM4kOOmmJkdNkN/x6GYanKXJ2Ze8B+9NABJ2FIEhT49mmhz+ZHy65XoDudA0QenkdeCws6fmJR0/4Ua7xJFwPQ79mBbj0GQYhYAj8GgyTAespBdLU34/X74oHFXgyACH3vmdnEsIkpKSoC+toltE1seJaTu70rGQU0ONBcgqyMTxrDQsKzyEb7N3YF7+j/i2cAfWFh7C+sLDWO3ao2Rd4SGsLkjFNtcxpBbmKMhxyJKNUEmEhpW86ct9yjCtQ5V0O324krC7rPqlqHdlXdT91S9R69r6uPyGJFRtnIhLrquBKo2qo0qjy1Hlmp/jZ9dXx6WNa6DaFdVwef3LUTspXoHOQE6ri2XUEX91KhwwofZFcFmHLfX7Eozi1u0CWQmzusU/2masNTlvZ13GsKiAyA4sehihJECiSZF78FqGC7jolriSBt16GnKtU01ZrM8XLkLuiSee8EKOAKsUkHNzZpSaIZWP/MJ8uAvzUVDsl6c6BTcKC/kWywXgFFex22N6vsEVIruwAFmFTMMz26rUdz6CrhwdTDiurSiQk+9xHK6k1EyMU3JZYnVQLk2qjp8mVsMlyT9XUiXpZ7ik9qWoWudyVKtXHXFJNZTUrpUAj9RA7Vo1kJjoEfNN7sK6qNcNamMUX3VOB48eh0OZujtcdoGr5JHpil3CwnWvUNJhHlgmhC6HT0UzCNS0g04wfk6Eh2h30chbMGVljcv8CeT4AkbIPf744wpyJUftlGhvosXRFA1OTFtNjkMUemWNld1VUABKXkGeEldBHvILCpDLGVMF+SjI57h/DgoK3MgvyEV+QTbyCrLgLsiEKz8DJwpcSjIK3MhUaTCtAhTkW8Rm4kc0fzMbolUWL17suIknhJyaVZlcS62Bi0tKAOXy2nH4eXINBbnLkmvgJylV8dM61fDTOlXxs7qXK8j9PKUqaiZWU0LAJSdwqNL5kGvVpjUOHzuq6g3rDuufz7oR4XrFOkLIyf3ZeXM2o7itJsOtfuJmWv6ulXi6aa2jdEu4bhe/WJvyG/m9kR0mO8tgRLSlUM30jFO4mCXUcpPr+Ny44wmfHZe4PProo5UZch44SSfjVqDLR4ErzwMsdjx5xeCi6fa42SFReJ0t3KRT8tdxRSHMrvNwIuT0tWmi1SkzKQkJiSWaXfXEGlCSVA3VkzxgI+C4eFNJQgISEhLK/hZXvJ5Ov2807Rz/dxLkgoFGWdApK9zuXno9ZbjuFrvddbHyY570Lb2CARzjSmcbqhns/SpbfA4zlkf4kkbIUQu3Qq527drFB6deqM2JBidmBdHkSkBFaBFy1PAK3PkeuFkhVww6gZuYF2hwBnJKMwsFHAI5z7WcbRkY5Dxr4xKLx9M9k058DlMayHk1pXCBQjp+gZI/03pPxrX6Odktv43aLzvMYCESMtyKNTjZI1OG3S42U35/qCafG8uMkOPmB4888ohXk6v0kBPtrCCPQ5bFw0cCLDtTtDFrmPjH2JTGqJtO1+QIN1nMLaZs4cWtvexFtvjyQDEUuEbzmnJrctb6Fqw7AvWSmg07j7KE8Sg62HS7k+Gm5415lt+s+wdi5xq0UIVH2kgZllXWlTVcfn95TYLu8OHDeOihh0pNPNG/w+l20eDErJCanIGcRxOKZodvdy+Bm5iBQM6TjoGcz1EFHYQRghy1Gn8dq3RK8tJFIOj2QADhlDiSb5rB5ilUwMl1wd7PxLf/3s36yk3AA4WcAK9MyOmVI1b2XM6Mys9XuxZw5wJKXrHQ7srLU37Mn4TrZn5ePpTIxA5xiyn+MTalU9FN7hbvxB1P7GAnfiWQ82hsVre+oaqAkaZc7zSTmlzL117DoaNHvPWL9c9ne5B65ct05yM/EJHr/d3LRxjrkM/8FWs1nG1JkfrGdpTrdqv2RLv45+VRC/Lze33kwd/9K1KYRxujRhaaVKTf6uS8cgIKT7u4qCHHjkeHm9gN5KILECvUrG4DuchCTuBUVodlBaG0FzHLuv5iCQ8VbnLdxVJOkf6d1OQqLeTKLDz9jTeYN079Oge8jUrnpJuVSZPzzqrUzn+qKJpci1atQtbk9OcZnD007UnuIe2GbrHrpjufx1O5kZef55XSbs+IiYFeaM9BL2tjD70Mpf6KJvfggw+qb3J16tTxObNShippVojhyjIriA4rA7mYD/tZNTdxG8jpQ4Bl28us9z5ezKyQ85WOQM5qlkDPQM5X2Rn/0KEVbNkZyPlo6MEWpBPiS+ekm0aTi+5Qq933QH6Ti4Um56tOSv2wflPjcA7D5Dub53pqcZwdSJPflHKQn59rEc/swdx8NygufufWvnnLBAq/ptul3UfXHHV79DpGX2Vn/CveM2Cd5nOjJsd9WMOiyTVo0ECpg7Nnz9Y+Ppf95imNz5ihlZV0WrpZWSFn913ODjBO8BPIHTxy2Dspw11qYoblebvzkKeLv7ghhAnE7NoZw9gZ6GEuVw48koWc3Ay4XB6Tdrc7u3hCheU3EJbFE1Hcbs7CzIE71yOunCyI0C/PlavCaCrxTtDgpJaSiS16noz9wvI2ZeK/TMI6XGkg57+wI1UZdbiJvaJCzglwClcenAA51geZ7q/brXWRcdgZKDOXMMtCbnamElfuabhdGV7JU4Cj9ufyxMvLhSvPBbcGJrHLAmq5H/NAu+SFC3WtYeI2Zmz6k8pW7gZyIbwRO60SsMOwSkWEXLjg4pR0nAA5a13lmW88EXzmzJnqWJ358+dj6tSp6ggeHsPDUZjPP/8MixcvxL49uzFz2teYN3c6liz6BsuXLcbsmVMxa8ZXWLNqGTZuWo958+bgm+++wY5dO3D0uOdkbwJv7/494GGq48ePV8f18JDVyZMn45NPPlGnkvNIHR7Tw/tz5hvtPLrHqk1a82/cBnzB1gEDOQO5mE84cQqUwp2PWENOtCbpFLZv346uXbuic+fOCja9e/dWJ4HzIFTCZsyYMWjXrp06HHX69OmY/vVXaNv6NQwb+CEmTRiPD/v2ReuWLTB6+DDMmT4NvXr0QPOXXsaQQYPw/ZIlSD91yquVLfthqboXD2Xt1q2LOk26Y8f2ePfdtzFsGE8AX4YJEz5Fs2b/wJgxH2PU6I8wffrXOHbsiDcNybcxDdjKUwcM5AzkDOQitKA81pBjxyAaPu2E3Lvvvovhw4erg0oJtX/961/qhHBuYPvZZ5/hn//8J8aOHYt169Zhw7o1CnITxo7BulUrFOze6tAey5Ysxs6tWzD4w4Fo3eo1fDt3HtKOHoM7t2QrqqXff6/S69OnD/r27Y0lSxbj1Rav4J133sJHHw3HqtUrsGjRAvTp8z5at35NwW/btq3IzEwvhpz5Jleejt1cW/JiEBHIzZo1y9u4pJEZ88IhxXCViXxz0c2FCxfitttuUxOB9MMBdXu4NReTXukZnYTcqy1bIvXwIbUjiNoVxGZo2VsPXG64dfEXN4AwqQ+S/u7du/Hiiy+iU6dOariSw5TPPPMMBg0ahOXLl2PatGn429/+hg/698OWTRuxa8d2PPbo/6JHl65YMO8bDB04CH9r+iTGffwJNq1dh6FDhuKJx57AsKHDsW3LNm+bd+Xkgprc6tUr0fzVl9G7X28sXb4Ug4YMxJChQ9C5S2d8OPhD7Nq7C8tWLEO7Du3Q8Y0O+GHZDziVccqbjuTbmJHrOy6GsuV3X+5dGdbZlQZy0a2U0pnppoFcaeDEAsCxhpy1A9u1axeaN2+uhiWp1fHcx+eff14NVfJIE0LvP//5D+bMmoH0UyexacM6tHmtJb5fuAj7du3GwH4D0LpFS6xbuRr7d+/B+z17o/M7nbFi2Qrs27sPWelZyDydifRTp7Fi2TJMmTIJ06Z9hRavtcD8BfMxYeIErFi1HB+P/RhvvvMmUg+nYvbc2WjZuiXad2qv4Ldp6yYDuQBeYKzP1rh997kGcpWgQulwE7uBnIGcteM7cOAghg0bgTWr1ymQfP/9UvTu3RcHDx5W7jmz52HkyNHYu2u3cgvYThw6qjTMz/47AePHjPNAyOXGsEFDMe7jscp97OARfP3FVOwo1uj27NyFTh064K033sTQ4UOxYdMGjB4zGi/86wW0fb2tgt3ho4cxdtwYTJk6BR8M+gBDRwzFnn2ee1vzbty+O3FTNv7LxkDOQM58k4vgN7lYDldaO7/cHDfWr9+I48dPesB07Di2bPkR2dm5yk0I7tlDjYzr4Nxw5+Ri785dcOe64UrPBkF25MAhT5jbjd3bdiJ1737ldmXmgBDct2uvJzzXpWC5Y9s27Evdh+zcbJw8fVINUe7dtwfHThzD6czTOHHquBqiZNjOPTuVn8vtAsWaf+P235mb8rEvHwM5AzmfkNO/3xm7HNQauFnu4Ur9+1ww9uI6ne12g5KlmbTbucVfwnidt9PkvXNdJd8LJcySJw5TZmdmllwn8bhWzwZaul+uOxdZOZmgaSCnlb1Wht7nYfxs65iv8okI5LgGR4bNjFn2AZPlLSNuy2SVBQsWlHviiQFb4ECzKyuB3IFDB5HDxdY8YdrfgaO5LrjCIcX3yOLJyC4XMm3Elz/jynXeemnNk/wGi39OFheQ53h+g8QpNnNcOch1lT6HTvzoT3tWTpYyaad4729Jy/hHvk+pTGXMQ1O5TlMmnqSkpIS+QbPseBIOyLHTrkwFHcnfYgUc3QZy5QOUHbSC9SPkWrRogYMHDwZWly3QKC/wBKyubBcuEN7Lzj/bA2Ne662z1nxJmNU/J7cE0hInCNO0ea3Mgyg373My15TUWa0s7CBXu3Zt7ykDPG1AP31A7LanEFghJ5XWrhPW/fSH5Mtfj2PsFzYGvdxo1yGXkJAAuw66rBmHdtcYv8DhSchxNmOlg5wVbuLWISd+WmdTVrtlvS0rjgm/sO2bMvFfJgK5hx9+WC2poiYXNOTk7J0rrrhCJRIOTdT4CtUAAAWqSURBVM48OP8Pzq58+DC5V+Dx48fxww8/eE8G9wU5A6zAgRVKWSlNrnlzHDl0yNN5s+MXELDzp90qAgcVl3HKIRwe9ZWOL3/9fmXGscm//nt4fS7zUDKcrtdb3d/Ozrh2/oH6meudU376c4+FPTU1FY8++qjiEwFnhZxobXZmFV21q1+/vkpkxowZ5o0siDfYcD90wm716tVo0qSJeh4GcpGFmS8AEnKvtWhZArmcXM83K4KAHXh2zgVSGnrlAFyOB3A+IafDLGR7acip73E65IrtgUKJO1MEGtfEK3lxMGVRuiys/Slf/LlX6hNPPFE+yBF2devWVYlMnDgRXHiakZFRLuGmraEKtymiRlNRr2e+mX/ODGLj14V+LFu+nRw4cEAJh8ROnjxZSpO75ZZbDOQSYwM4go+Q+/tzz2HPrl04deIksjIy1OzDzPR0ZJw6XUroZ5Vd23chVNm/9wBOpJ2I8PU7sGt7iezYtt3r3r93H06kpSl3oG2QC9QlLttvWlqa1y3+gZrm+ou7/FhPWAd4jhxfAjZv3oz777/fCzk7jc2Xn1eTI+SoArJht2zZEm+//TY8+9b1Rd++9tK/f38Y8V0GermxLHXRw6QMBwwYoMr6/fffxwsvvIBrr71WPY/4+HgYbS76sIurXgO/atwYXTq/hw8HfIAe3bqhZ/fu6NWjJ97v2Qt9er2Pfn36KOnfty8oA/r11+QDDOjnZNHz6tsu9dOYvtu6KZvIlA37ye7du4MbhV999dWoWrUqZHalDjUZkdRNCS8FOXoyEkFnJPZlEBcX5501RM1Cf4DGnlRmefgahgzUv2bNmqYdmL7A1AEH1YF69eqFDjm9E61RowbYwVKz4xAmv9UZCb4MOJGHwlmrDRs29Ard9OcDY/nyzcQqLHtqcPI2oj8fA7iyAccyChRm1ngsc5Y/nwmfkWjS4q8/N8aTZ2Q1U5JT4GxJRkpy2WL9Xcad7POZm7IJf9mwLbMNXnLJJerFlmUcSB8oz6KUJicdA02JwEYcrMi11o47GLd0MsFco8eN9fXMi5Sb3UORMvJn8noJD+Shmjil4WeFV6Buqf/W8pRnYTX1eqfb66bUhbMlBXVTyhb9Nxn7hS+kpkwiWyZsb2y71vboy21tn1V8NXw9AetF4tbjGHvpDlbKQ8rKlynx7Ey5hmG+npPxD/+3OpY3y976THyVNd8y7aRWfC04W+JRK75ssfttxs/+mZtyCU+5cA6CiN7upE3qfla7xBHTJ+R4oUQypj3AAi0XgZWYgV5nfXjGHX6g+StT/TnZxbNrhHq85MRkVGxJRHIMZ7fqZWns0a37Ti1vtslA8ybt1y/kJDGJbDUl3Gpa4xm3PSSt5WZ1s9ysfsYdncYejrKv2IAjoA3kTHuLTnuLRDkLdwKCXLAZkMQvdjPYcrPGD0dHa03TuKPXaA3kolfWpl6bsrbWAeGPgVySvZYlBVQe01rowboN5Cp2wzWQq9jPL9j2auI763lL320gZyBnhkQj9N0puVYyKrYkIrmWszouAxLzPAKtAwZyEYSbFG6gD8NXPKPJVewGXbEBR0AbyPlqm8bf+W1T+mGjyUUQduVtCAZyzm9I/p6xgVzFfn7+nq0Jc/6zNZCLINykcMvbEAzknN+Q/D1jA7mK/fz8PVsT5vxnK/1wRDQ5vQLIjYwZ3AQXvQyN3fkNyjwj84xMHXBWHRDmGMhFUKMzld5Zld48D/M8TB24eOpA1CBnKtXFU6nMszbP2tQBUwecUgcM5CI0bdwpD9jkw3Q2pg6YOnAx1wEDOQM5sz7O1AFTB0wdqLR1wEDOVO5KW7kv5rdX89uN9mbqgKcOGMgZyBnImTpg6oCpA5W2DhjImcpdaSu3eZM12oypA6YOGMgZyBnImTpg6oCpA5W2DhjImcpdaSu3eYs3b/GmDpg6IJD7/7nKbpsz3J7WAAAAAElFTkSuQmCC;" vertex="1" parent="1">
                    <mxGeometry x="160" y="70" width="441" height="317" as="geometry"/>
                </mxCell>
            </root>
        </mxGraphModel>
    </diagram>
</mxfile>